<?xml version="1.0" standalone="no"?>
<!DOCTYPE svg PUBLIC "-//W3C//DTD SVG 20010904//EN"
 "http://www.w3.org/TR/2001/REC-SVG-20010904/DTD/svg10.dtd">
<svg version="1.0" xmlns="http://www.w3.org/2000/svg"
 width="279.000000pt" height="259.000000pt" viewBox="0 0 279.000000 259.000000"
 preserveAspectRatio="xMidYMid meet">

<g transform="translate(0.000000,259.000000) scale(0.100000,-0.100000)"
fill="#000000" stroke="none">
<path d="M805 2479 c-93 -12 -225 -53 -306 -95 -172 -90 -284 -255 -336 -494
-16 -77 -18 -140 -18 -660 0 -558 1 -577 22 -660 77 -303 214 -449 498 -537
l90 -28 630 0 c627 0 630 0 715 23 127 35 220 84 305 164 121 113 192 256 220
447 18 118 21 1068 5 1184 -50 340 -238 555 -560 638 -82 22 -103 23 -640 25
-305 1 -586 -2 -625 -7z m1235 -183 c163 -45 294 -145 357 -271 68 -135 68
-137 68 -785 0 -542 -1 -590 -19 -655 -41 -153 -103 -245 -214 -319 -150 -99
-236 -109 -892 -104 -573 5 -598 8 -736 73 -136 66 -231 192 -271 362 -16 71
-18 132 -18 643 0 511 2 572 18 643 35 148 110 260 227 337 50 34 176 77 260
90 30 4 303 7 605 6 495 -2 556 -4 615 -20z"/>
<path d="M1333 1766 l-27 -24 2 -200 c2 -154 -1 -202 -10 -209 -7 -4 -102 -8
-210 -8 -186 0 -199 -1 -218 -21 -11 -11 -23 -36 -27 -56 -4 -30 -1 -41 19
-61 34 -34 104 -42 284 -33 120 6 143 4 154 -9 9 -11 12 -49 9 -138 -5 -226
-2 -265 26 -292 31 -32 75 -32 110 -2 l26 22 0 197 c0 109 2 204 5 213 5 13
36 15 214 15 l209 0 20 26 c28 36 27 85 -2 112 -22 21 -32 22 -224 22 -160 0
-203 3 -212 14 -8 10 -11 72 -9 211 l3 197 -28 24 c-36 31 -78 31 -114 0z"/>
</g>
</svg>
