<?xml version="1.0" standalone="no"?>
<!DOCTYPE svg PUBLIC "-//W3C//DTD SVG 20010904//EN"
 "http://www.w3.org/TR/2001/REC-SVG-20010904/DTD/svg10.dtd">
<svg version="1.0" xmlns="http://www.w3.org/2000/svg"
 width="195.000000pt" height="200.000000pt" viewBox="0 0 195.000000 200.000000"
 preserveAspectRatio="xMidYMid meet">

<g transform="translate(0.000000,200.000000) scale(0.100000,-0.100000)"
fill="#000000" stroke="none">
<path d="M725 1970 c-271 -43 -508 -222 -623 -470 -60 -130 -76 -203 -75 -355
0 -111 4 -143 27 -218 46 -153 114 -264 228 -373 158 -152 339 -224 563 -224
176 0 324 45 463 139 34 22 64 41 69 41 4 0 109 -101 233 -225 162 -161 232
-225 249 -225 29 0 81 52 81 81 0 17 -64 87 -225 249 -124 124 -225 229 -225
232 0 4 22 41 49 82 92 141 132 280 132 456 0 135 -25 232 -92 370 -46 93 -63
116 -148 200 -125 124 -227 183 -387 225 -74 19 -240 27 -319 15z m335 -179
c95 -30 185 -87 265 -166 78 -79 125 -152 162 -253 34 -91 43 -273 19 -377
-57 -243 -256 -441 -503 -500 -107 -26 -272 -17 -371 19 -212 79 -354 226
-428 446 -29 85 -27 312 4 400 89 251 317 436 567 459 93 8 205 -3 285 -28z"/>
</g>
</svg>
