<?xml version="1.0" encoding="UTF-8"?>
<svg version="1.1" xmlns="http://www.w3.org/2000/svg" width="178" height="185">
<path d="M0 0 C8.21173853 3.70622335 16.06955746 8.07204081 23.89404297 12.52490234 C28.47110265 15.12763404 33.13846703 17.54777323 37.81445312 19.96679688 C39.27361455 20.73867096 40.73197323 21.51206485 42.18945312 22.28710938 C45.17642888 23.87081724 48.17789648 25.42255096 51.18945312 26.95898438 C51.96627441 27.35931885 52.7430957 27.75965332 53.54345703 28.17211914 C55.00017563 28.92240282 56.46051377 29.66572388 57.92529297 30.40014648 C62.1217242 32.57513241 65.34266459 34.86033979 68.43945312 38.52929688 C68.88694556 41.66174395 68.96385044 43.57266212 67.4309082 46.36914062 C65.43025316 50.72811522 66.11305148 55.8138579 66.12695312 60.52929688 C66.11083984 61.62242188 66.09472656 62.71554688 66.078125 63.84179688 C66.0771582 65.41960937 66.0771582 65.41960937 66.07617188 67.02929688 C66.07319092 67.98835938 66.07020996 68.94742188 66.06713867 69.93554688 C66.49895626 72.94382887 67.52143491 74.22969665 69.43945312 76.52929688 C69.52148438 78.46679688 69.52148438 78.46679688 69.25195312 80.52929688 C69.05272544 85.00085166 70.33261722 87.73528742 72.43945312 91.65429688 C76.53322535 99.27919017 76.53322535 99.27919017 75.43945312 104.52929688 C73.39695331 107.81505745 71.04052366 108.86514948 67.43945312 109.90429688 C60.51949317 111.18746826 53.41219392 110.16138986 47.25195312 106.77929688 C44.94451013 103.91488488 44.67244941 102.19129506 44.43945312 98.52929688 C45.61914062 95.35351563 45.61914062 95.35351563 47.31445312 92.21679688 C48.14589844 90.64478516 48.14589844 90.64478516 48.99414062 89.04101562 C50.43945313 86.52929687 50.43945313 86.52929687 51.43945312 85.52929688 C51.68292178 83.30651825 51.82272829 81.0850476 51.96289062 78.85351562 C52.43945312 76.52929688 52.43945312 76.52929688 53.93725586 74.68188477 C55.69149979 72.1681242 55.8539771 70.79614885 55.95117188 67.76367188 C55.98662109 66.87421875 56.02207031 65.98476562 56.05859375 65.06835938 C56.09243164 63.68777344 56.09243164 63.68777344 56.12695312 62.27929688 C56.16111328 61.3434375 56.19527344 60.40757813 56.23046875 59.44335938 C56.31277474 57.13879155 56.38197942 54.83459568 56.43945312 52.52929688 C55.45203125 52.96242187 54.46460938 53.39554688 53.44726562 53.84179688 C52.15307758 54.40448733 50.8588022 54.96697693 49.56445312 55.52929688 C48.58798828 55.95855469 48.58798828 55.95855469 47.59179688 56.39648438 C42.66601563 58.52929688 42.66601563 58.52929688 40.43945312 58.52929688 C40.65601563 59.64046875 40.87257812 60.75164063 41.09570312 61.89648438 C45.15157979 83.26737213 45.15157979 83.26737213 40.90039062 91.64257812 C36.88968783 96.82217558 31.74126882 99.62381636 25.93945312 102.34179688 C19.29218072 105.54379425 12.94128966 109.05760187 6.62304688 112.86523438 C-4.30854781 118.57917221 -20.53847309 118.55670568 -32.24804688 114.96679688 C-37.00590418 113.03391734 -41.1872789 110.4035748 -45.42382812 107.52148438 C-49.97634485 104.63009766 -54.78358484 102.25083975 -59.63549805 99.90161133 C-65.52081947 96.92720633 -69.12704406 93.65693939 -71.93554688 87.52929688 C-74.09235808 78.33232833 -71.46787809 67.60300847 -69.56054688 58.52929688 C-70.65761963 58.33460815 -70.65761963 58.33460815 -71.77685547 58.13598633 C-76.12696383 57.18790535 -80.0871962 55.4275478 -84.18554688 53.71679688 C-85.0440625 53.37326172 -85.90257813 53.02972656 -86.78710938 52.67578125 C-88.02460937 52.16047852 -88.02460937 52.16047852 -89.28710938 51.63476562 C-90.03557129 51.32692139 -90.7840332 51.01907715 -91.55517578 50.7019043 C-94.51524921 48.97105055 -96.06032121 46.7221427 -97.37304688 43.59179688 C-97.65241425 40.5187557 -97.15839096 39.21367494 -95.56054688 36.52929688 C-90.59127599 31.36890018 -83.9168769 28.68204269 -77.51269531 25.7590332 C-72.15781908 23.30993466 -66.94153665 20.677672 -61.74804688 17.90429688 C-60.15695201 17.07086623 -58.56580371 16.23753759 -56.97460938 15.40429688 C-54.06601409 13.87472958 -51.18002559 12.31714683 -48.30957031 10.71679688 C-16.70643752 -6.90068429 -16.70643752 -6.90068429 0 0 Z M-23.93554688 8.02929688 C-25.35986005 8.76919982 -26.78434404 9.50877405 -28.20898438 10.24804688 C-28.93182617 10.62832031 -29.65466797 11.00859375 -30.39941406 11.40039062 C-33.76294737 13.15739221 -37.16199437 14.84134634 -40.56054688 16.52929688 C-41.89407573 17.19557235 -43.22740864 17.86224015 -44.56054688 18.52929688 C-59.22721354 25.86263021 -73.89388021 33.19596354 -88.56054688 40.52929688 C-87.87877171 43.71677353 -87.87877171 43.71677353 -85.125 44.84106445 C-83.49981445 45.50078247 -83.49981445 45.50078247 -81.84179688 46.17382812 C-81.2442308 46.42035126 -80.64666473 46.66687439 -80.0309906 46.92086792 C-78.04479938 47.73789762 -76.05278498 48.53963799 -74.06054688 49.34179688 C-72.67535792 49.9086804 -71.29068046 50.47681523 -69.90649414 51.04614258 C-67.73017775 51.94123556 -65.55358895 52.83557626 -63.37538147 53.72605896 C-58.02126416 55.91683648 -52.68989248 58.15719979 -47.36914062 60.42773438 C-46.62294464 60.74604721 -45.87674866 61.06436005 -45.10794067 61.39231873 C-42.18800427 62.6388927 -39.26864289 63.88679951 -36.35009766 65.1366272 C-34.32608885 66.00270113 -32.30085304 66.86584786 -30.27539062 67.72851562 C-29.12159912 68.22182373 -27.96780762 68.71513184 -26.77905273 69.22338867 C-18.60361248 72.54057216 -13.18192232 73.77001295 -4.80664062 70.36132812 C-2.53152948 69.36749484 -0.26230761 68.36010854 2.00195312 67.34179688 C3.22932493 66.80134718 4.45728367 66.26222872 5.68579102 65.72436523 C8.27349088 64.58943984 10.85807449 63.44781455 13.44042969 62.30078125 C19.42985356 59.64297212 25.44094832 57.03509846 31.4526062 54.42807007 C33.31962342 53.61671094 35.18453331 52.80067787 37.04907227 51.98364258 C44.77403318 48.61651572 52.54901409 45.48687908 60.43945312 42.52929688 C57.87705656 39.59934343 54.97049849 38.04659424 51.54882812 36.23632812 C50.68366577 35.7756192 50.68366577 35.7756192 49.80102539 35.30560303 C47.9331996 34.31248258 46.06143589 33.32705567 44.18945312 32.34179688 C42.90175752 31.65926442 41.6143231 30.97623898 40.32714844 30.29272461 C37.81255053 28.95819996 35.29654935 27.62638523 32.77929688 26.296875 C29.48606668 24.55396662 26.20287024 22.79362034 22.92333984 21.02514648 C15.41701464 16.9844986 7.82540936 13.12022796 0.16796875 9.375 C-1.34342924 8.63552505 -2.8507779 7.88778536 -4.35742188 7.13867188 C-5.12570313 6.77257812 -5.89398438 6.40648437 -6.68554688 6.02929688 C-7.306875 5.73023438 -7.92820312 5.43117188 -8.56835938 5.12304688 C-14.49013579 3.35812528 -18.73689016 5.22922831 -23.93554688 8.02929688 Z M-61.56054688 62.52929688 C-64.16087559 69.81021729 -66.6262363 80.20553375 -63.37304688 87.52929688 C-59.95499683 92.27858747 -53.73013048 94.2404736 -48.56054688 96.52929688 C-44.07727097 98.66686883 -40.19425854 101.10578205 -36.19726562 104.02929688 C-29.33922369 107.93076073 -22.56181681 109.08911738 -14.74804688 109.02929688 C-13.87220947 109.02357666 -12.99637207 109.01785645 -12.09399414 109.01196289 C-1.00788333 108.70779893 6.77169074 104.20363846 15.83398438 98.16210938 C18.28005899 96.62918705 20.65742089 95.45731123 23.31445312 94.34179688 C28.45731722 92.17976993 32.24743167 89.81867426 34.43945312 84.52929688 C34.72656665 82.47428809 34.72656665 82.47428809 34.66992188 80.34179688 C34.66798828 79.560625 34.66605469 78.77945313 34.6640625 77.97460938 C34.65181641 77.16765625 34.63957031 76.36070313 34.62695312 75.52929688 C34.62630859 74.72234375 34.62566406 73.91539063 34.625 73.08398438 C34.59747291 69.37700246 34.44947663 66.11601375 33.43945312 62.52929688 C24.56976886 64.81221694 16.3461947 68.45823027 8.00195312 72.15429688 C5.96075926 73.05260531 3.91885962 73.94927844 1.87644958 74.84481812 C0.0414344 75.65030877 -1.79171537 76.46004516 -3.62475586 77.27001953 C-10.12795893 80.05950156 -16.46567517 80.75056177 -23.33886719 78.70068359 C-26.17184187 77.54570161 -28.92657883 76.28865418 -31.68554688 74.96679688 C-33.69011825 74.05003826 -35.69533352 73.13468632 -37.70117188 72.22070312 C-38.68408203 71.7658252 -39.66699219 71.31094727 -40.6796875 70.84228516 C-44.88904435 68.92381726 -49.15290831 67.15163943 -53.43554688 65.40429688 C-54.14855957 65.10966553 -54.86157227 64.81503418 -55.59619141 64.51147461 C-58.48686841 63.12512081 -58.48686841 63.12512081 -61.56054688 62.52929688 Z M60.43945312 88.52929688 C56.91557668 92.64048606 54.43945312 95.99437799 54.43945312 101.52929688 C57.96939926 102.70594559 60.73400725 102.7278029 64.43945312 102.52929688 C65.42945313 101.86929688 66.41945312 101.20929688 67.43945312 100.52929688 C66.84722179 98.89990914 66.24021685 97.27588559 65.62695312 95.65429688 C65.29050781 94.749375 64.9540625 93.84445313 64.60742188 92.91210938 C63.54296289 90.23503838 63.54296289 90.23503838 60.43945312 88.52929688 Z " fill="#303030" transform="translate(99.560546875,1.470703125)"/>
<path d="M0 0 C1.9375 1.375 1.9375 1.375 2.58911133 3.59033203 C2.97089507 6.64192652 2.80359218 9.25084363 2.44921875 12.3046875 C2.31966797 13.43003906 2.19011719 14.55539063 2.05664062 15.71484375 C1.84297852 17.46474609 1.84297852 17.46474609 1.625 19.25 C1.49416016 20.40886719 1.36332031 21.56773438 1.22851562 22.76171875 C0.54800194 28.51485373 -0.43250348 33.80561602 -2.0625 39.375 C-1.47350796 39.37315641 -0.88451591 39.37131283 -0.27767563 39.36941338 C14.0524225 39.32524869 28.38251455 39.29215041 42.71266556 39.27137566 C49.6426157 39.26106216 56.57252042 39.24700044 63.50244141 39.22412109 C70.18732072 39.20206127 76.87214305 39.19043857 83.55706024 39.18524551 C86.11039728 39.18154361 88.66373166 39.17431495 91.21704865 39.16353989 C94.78700902 39.14907061 98.35677295 39.14702017 101.92675781 39.14794922 C102.98771164 39.14075867 104.04866547 39.13356812 105.14176941 39.12615967 C106.60145897 39.13028366 106.60145897 39.13028366 108.09063721 39.13449097 C108.93499958 39.13264738 109.77936195 39.13080379 110.64931107 39.12890434 C113.14632238 39.39745893 114.77911821 40.1222903 116.9375 41.375 C117.3125 43.4375 117.3125 43.4375 116.9375 46.375 C115.671875 48.01953125 115.671875 48.01953125 114.0625 49.75 C110.09977905 54.06787047 109.1033743 58.05275985 108.6875 63.875 C108.96694579 67.78724106 109.31747153 70.78276297 110.9375 74.375 C114.35965347 75.62656841 114.35965347 75.62656841 117.9375 76.375 C120 78.125 120 78.125 120.9375 80.375 C119.70673077 85.60576923 119.70673077 85.60576923 117.9375 87.375 C116.35126856 87.48400541 114.76021437 87.52351519 113.17028809 87.53562927 C112.13856476 87.5456749 111.10684143 87.55572052 110.04385376 87.56607056 C108.90209686 87.57190155 107.76033997 87.57773254 106.58398438 87.58374023 C105.38885223 87.59352402 104.19372009 87.6033078 102.96237183 87.61338806 C98.98534121 87.64343534 95.00834678 87.66505789 91.03125 87.68359375 C90.35436441 87.68689107 89.67747883 87.69018839 88.98008156 87.69358563 C82.59304058 87.72438732 76.20599494 87.75109196 69.81890106 87.76800442 C61.65546905 87.78987359 53.49269804 87.83174373 45.32953024 87.90144199 C39.58759487 87.9487946 33.845837 87.97295351 28.10371256 87.9802013 C24.67642256 87.98514399 21.24987644 88.00008777 17.82279968 88.0399456 C13.99007026 88.07887709 10.15905229 88.0798906 6.32617188 88.07202148 C4.6378273 88.1020224 4.6378273 88.1020224 2.91537476 88.13262939 C-5.96922738 88.05094371 -11.21491045 85.22258955 -17.4375 79 C-22.4451398 70.9107357 -22.57832613 64.65384186 -21.0625 55.375 C-19.54396507 50.14801777 -17.62431843 45.1211612 -15.625 40.0625 C-11.48022367 29.35681063 -7.97448774 19.7894079 -7.50390625 8.20703125 C-6.99793681 4.96076714 -5.97776231 3.02436777 -4.0625 0.375 C-2.0625 -0.625 -2.0625 -0.625 0 0 Z M-10.62109375 53.19921875 C-13.59737003 59.50892447 -14.24172599 64.96834715 -11.9375 71.625 C-9.0877053 75.8046989 -5.95657029 78.74364324 -1.0625 80.375 C1.91843333 80.46162187 4.87533019 80.49049151 7.85595703 80.47265625 C8.76852768 80.47119598 9.68109833 80.46973572 10.62132263 80.4682312 C12.6052924 80.46442298 14.58925876 80.45830407 16.57321548 80.45016479 C19.7179965 80.43740798 22.86273534 80.43088654 26.00753784 80.42602539 C33.8237118 80.41264657 41.63984604 80.38852275 49.45599365 80.36462402 C56.05170342 80.34484678 62.64739793 80.32922041 69.24312973 80.31906128 C72.33229043 80.31260558 75.42138834 80.30009347 78.51052856 80.28735352 C80.42124376 80.28371771 82.33195952 80.28036639 84.24267578 80.27734375 C85.09392532 80.27217743 85.94517487 80.26701111 86.82221985 80.26168823 C91.65943276 80.26126588 96.32332589 80.57282301 101.11427116 81.25733948 C103.0370481 81.53517867 103.0370481 81.53517867 104.9375 80.375 C104.73253906 79.76011719 104.52757812 79.14523438 104.31640625 78.51171875 C101.26118217 69.34604652 99.96382645 62.58998688 102.453125 53.05859375 C102.72930664 51.9905249 103.00548828 50.92245605 103.29003906 49.82202148 C103.50370117 49.01450439 103.71736328 48.2069873 103.9375 47.375 C90.23776967 47.28228119 76.53811411 47.21122509 62.83813381 47.16775131 C56.47653043 47.14688508 50.11514186 47.11858431 43.75366211 47.07324219 C37.61339776 47.02975115 31.47333993 47.00585564 25.33293343 46.99549103 C22.99138196 46.9881056 20.64984167 46.97368361 18.30837822 46.95207977 C15.02622001 46.92300343 11.74491297 46.9190459 8.46264648 46.92089844 C7.01362946 46.89932678 7.01362946 46.89932678 5.53533936 46.87731934 C-1.0585418 46.91753738 -6.11991288 47.93091934 -10.62109375 53.19921875 Z " fill="#272727" transform="translate(32.0625,97.625)"/>
<path d="M0 0 C0.99064453 0.02255859 1.98128906 0.04511719 3.00195312 0.06835938 C3.94876953 0.10380859 4.89558594 0.13925781 5.87109375 0.17578125 C6.70439209 0.20196533 7.53769043 0.22814941 8.39624023 0.25512695 C11.02197399 0.77920838 11.9770835 1.55682241 13.5625 3.6875 C13.31103421 5.82495922 13.10324221 7.14675779 11.5625 8.6875 C7.08055159 9.07509589 2.57429075 9.13655401 -1.921875 9.26953125 C-2.95354923 9.30171218 -2.95354923 9.30171218 -4.00606537 9.33454323 C-18.85241973 9.7867831 -33.67887142 9.70791942 -48.52783203 9.44555664 C-52.07003056 9.38324222 -55.61225745 9.33714433 -59.15474319 9.29472637 C-61.92745279 9.25952232 -64.69996243 9.21531128 -67.47249603 9.16837502 C-69.41072093 9.13739649 -71.34907271 9.11470987 -73.28741455 9.09220886 C-74.44843689 9.06911148 -75.60945923 9.0460141 -76.80566406 9.0222168 C-77.82468811 9.00587692 -78.84371216 8.98953705 -79.89361572 8.97270203 C-82.4375 8.6875 -82.4375 8.6875 -85.4375 6.6875 C-85.625 4.0625 -85.625 4.0625 -85.4375 1.6875 C-82.997736 0.467618 -81.35890146 0.53021256 -78.63085938 0.48217773 C-77.12658386 0.4522599 -77.12658386 0.4522599 -75.59191895 0.42173767 C-74.49939819 0.40502518 -73.40687744 0.38831268 -72.28125 0.37109375 C-71.15037964 0.35031265 -70.01950928 0.32953156 -68.85437012 0.30812073 C-66.44673535 0.2647728 -64.03905796 0.22374151 -61.63134766 0.18481445 C-58.00803411 0.12614216 -54.3848926 0.06083241 -50.76171875 -0.00585938 C-16.73984377 -0.61313871 -16.73984377 -0.61313871 0 0 Z " fill="#363636" transform="translate(115.4375,150.3125)"/>
<path d="M0 0 C0.90270126 -0.00671722 1.80540253 -0.01343445 2.73545837 -0.02035522 C5.72408527 -0.03937804 8.71248819 -0.0432613 11.70117188 -0.04541016 C13.77478122 -0.05183408 15.84838965 -0.05856213 17.92199707 -0.06558228 C22.26979678 -0.07756504 26.61751697 -0.08126197 30.96533203 -0.08007812 C36.54439124 -0.07987465 42.12294269 -0.1072023 47.70188141 -0.14162254 C51.98433794 -0.16382513 56.26667087 -0.16791774 60.54917908 -0.16685867 C62.60653945 -0.16922368 64.66390277 -0.17809747 66.72120667 -0.19352341 C69.59445123 -0.21305329 72.46658241 -0.20739722 75.33984375 -0.1953125 C76.62102333 -0.21217102 76.62102333 -0.21217102 77.92808533 -0.22937012 C83.70714319 -0.1673989 83.70714319 -0.1673989 86.22180176 2.32089233 C86.69112122 3.29586166 86.69112122 3.29586166 87.16992188 4.29052734 C86.50992188 5.61052734 85.84992188 6.93052734 85.16992188 8.29052734 C76.17963536 8.4463477 67.18926098 8.59446561 58.198699 8.73349094 C54.02131268 8.79831412 49.84399659 8.8655175 45.66674805 8.9387207 C13.73038564 9.49501816 13.73038564 9.49501816 -0.48242188 8.94287109 C-1.41043106 8.91036758 -2.33844025 8.87786407 -3.29457092 8.84437561 C-4.12862961 8.80332199 -4.96268829 8.76226837 -5.82202148 8.7199707 C-6.53160507 8.68576523 -7.24118866 8.65155975 -7.97227478 8.61631775 C-9.83007812 8.29052734 -9.83007812 8.29052734 -12.83007812 6.29052734 C-12.51757812 4.41552734 -12.51757812 4.41552734 -11.83007812 2.29052734 C-7.90405536 -0.32682116 -4.55661081 -0.00483537 0 0 Z " fill="#353535" transform="translate(41.830078125,163.70947265625)"/>
<path d="M0 0 C2.8125 1.6875 2.8125 1.6875 5.0390625 3.56640625 C8.1675854 5.95906531 11.4581973 7.63967365 15 9.3125 C21.55883072 12.43383072 21.55883072 12.43383072 23.8125 14.6875 C23.4375 17.3125 23.4375 17.3125 22.8125 19.6875 C20.45659615 20.51196733 19.20384996 20.81756994 16.80126953 20.01904297 C16.10630371 19.65955566 15.41133789 19.30006836 14.6953125 18.9296875 C13.92316406 18.55199219 13.15101562 18.17429687 12.35546875 17.78515625 C10.74653798 16.97159352 9.1422987 16.14868399 7.54296875 15.31640625 C5.29344677 14.22720343 3.24013252 13.28736743 0.8125 12.6875 C-2.54157922 13.77502064 -2.54157922 13.77502064 -5.1875 15.6875 C-10.4213575 16.24827045 -13.72943385 15.48675084 -18.1875 12.6875 C-20.1875 9.6875 -20.1875 9.6875 -20.125 6.25 C-19.01373229 2.02718272 -17.84186216 0.9497242 -14.1875 -1.3125 C-9.20066702 -2.97477766 -4.73473411 -1.9495964 0 0 Z M-10.1875 6.6875 C-6.1875 7.6875 -6.1875 7.6875 -6.1875 7.6875 Z " fill="#303030" transform="translate(94.1875,33.3125)"/>
<path d="M0 0 C0 7.26 0 14.52 0 22 C-0.66 22 -1.32 22 -2 22 C-2 15.4 -2 8.8 -2 2 C-2.66 1.67 -3.32 1.34 -4 1 C-2 0 -2 0 0 0 Z " fill="#959595" transform="translate(158,52)"/>
<path d="M0 0 C1.21816406 0.03480469 1.21816406 0.03480469 2.4609375 0.0703125 C3.68683594 0.09738281 3.68683594 0.09738281 4.9375 0.125 C5.87722656 0.15980469 5.87722656 0.15980469 6.8359375 0.1953125 C2.85552247 4.17572753 -2.28535366 4.31914425 -7.66015625 4.390625 C-9.64071996 4.37746511 -11.62123839 4.3538118 -13.6015625 4.3203125 C-14.61927734 4.31128906 -15.63699219 4.30226563 -16.68554688 4.29296875 C-19.17863406 4.26955948 -21.67122109 4.2367695 -24.1640625 4.1953125 C-24.1640625 3.8653125 -24.1640625 3.5353125 -24.1640625 3.1953125 C-23.56867676 3.17549316 -22.97329102 3.15567383 -22.35986328 3.13525391 C-19.66914097 3.04015124 -16.97921102 2.93041408 -14.2890625 2.8203125 C-13.35191406 2.789375 -12.41476563 2.7584375 -11.44921875 2.7265625 C-10.10537109 2.66855469 -10.10537109 2.66855469 -8.734375 2.609375 C-7.90695801 2.5779541 -7.07954102 2.5465332 -6.22705078 2.51416016 C-3.39161444 2.07592585 -2.89466791 0.26125162 0 0 Z " fill="#A9A9A9" transform="translate(98.1640625,113.8046875)"/>
<path d="M0 0 C0.99 0.33 1.98 0.66 3 1 C2.67515625 1.85271484 2.67515625 1.85271484 2.34375 2.72265625 C-0.07539684 9.43130883 -0.70364302 14.97247254 1 22 C0.01 21.67 -0.98 21.34 -2 21 C-2.20177072 13.64657821 -2.21211746 7.05112439 0 0 Z " fill="#848484" transform="translate(141,148)"/>
<path d="M0 0 C0.33 0 0.66 0 1 0 C0.97679687 0.94101563 0.95359375 1.88203125 0.9296875 2.8515625 C0.91164062 4.09679687 0.89359375 5.34203125 0.875 6.625 C0.85179687 7.85476562 0.82859375 9.08453125 0.8046875 10.3515625 C0.9969572 13.94316041 1.69741444 16.66661175 3 20 C1.68 19.34 0.36 18.68 -1 18 C-1.09945415 11.88909517 -1.0712828 6.02596573 0 0 Z " fill="#868686" transform="translate(35,71)"/>
<path d="M0 0 C0.33 0 0.66 0 1 0 C1.66 4.62 2.32 9.24 3 14 C-1 10 -1 10 -1.42578125 7.67578125 C-1.38839844 6.89589844 -1.35101562 6.11601562 -1.3125 5.3125 C-1.28800781 4.52488281 -1.26351563 3.73726562 -1.23828125 2.92578125 C-1 1 -1 1 0 0 Z " fill="#7B7B7B" transform="translate(18,157)"/>
<path d="M0 0 C0 0.66 0 1.32 0 2 C-1.40751221 2.86916887 -2.8264521 3.71985149 -4.25 4.5625 C-5.03890625 5.03816406 -5.8278125 5.51382812 -6.640625 6.00390625 C-9.30844625 7.13022151 -10.34501768 7.0169313 -13 6 C-11.21118264 4.99491199 -9.41885304 3.99607264 -7.625 3 C-6.62726562 2.443125 -5.62953125 1.88625 -4.6015625 1.3125 C-2 0 -2 0 0 0 Z " fill="#818181" transform="translate(54,12)"/>
<path d="M0 0 C0.66 0.33 1.32 0.66 2 1 C0.76055724 1.86941494 -0.49207059 2.72005457 -1.75 3.5625 C-2.44609375 4.03816406 -3.1421875 4.51382813 -3.859375 5.00390625 C-6 6 -6 6 -8.265625 5.65234375 C-8.83796875 5.43707031 -9.4103125 5.22179687 -10 5 C-8.38007835 4.13624104 -6.75388139 3.28424146 -5.125 2.4375 C-4.22007813 1.96183594 -3.31515625 1.48617187 -2.3828125 0.99609375 C-1.20332031 0.50302734 -1.20332031 0.50302734 0 0 Z " fill="#858585" transform="translate(123,95)"/>
<path d="M0 0 C0.66 0.33 1.32 0.66 2 1 C1 4 1 4 -1 5 C-1.72159424 6.64363134 -2.39351421 8.31050386 -3 10 C-3.33 10 -3.66 10 -4 10 C-3.38461538 3.47692308 -3.38461538 3.47692308 -1.4375 1.0625 C-0.7259375 0.5365625 -0.7259375 0.5365625 0 0 Z " fill="#606060" transform="translate(78,33)"/>
<path d="M0 0 C2.1640625 -0.29296875 2.1640625 -0.29296875 4.625 -0.1875 C5.44226563 -0.16042969 6.25953125 -0.13335937 7.1015625 -0.10546875 C8.04128906 -0.05326172 8.04128906 -0.05326172 9 0 C6.60236815 2.39763185 5.66726502 2.34280586 2.375 2.625 C1.55773437 2.69976562 0.74046875 2.77453125 -0.1015625 2.8515625 C-0.72804688 2.90054688 -1.35453125 2.94953125 -2 3 C-1.34 2.01 -0.68 1.02 0 0 Z " fill="#7B7B7B" transform="translate(96,114)"/>
<path d="" fill="#FFFFFF" transform="translate(0,0)"/>
<path d="" fill="#FFFFFF" transform="translate(0,0)"/>
<path d="" fill="#FFFFFF" transform="translate(0,0)"/>
<path d="" fill="#FFFFFF" transform="translate(0,0)"/>
<path d="" fill="#FFFFFF" transform="translate(0,0)"/>
<path d="" fill="#FFFFFF" transform="translate(0,0)"/>
<path d="" fill="#FFFFFF" transform="translate(0,0)"/>
<path d="" fill="#FFFFFF" transform="translate(0,0)"/>
<path d="" fill="#FFFFFF" transform="translate(0,0)"/>
<path d="" fill="#FFFFFF" transform="translate(0,0)"/>
<path d="" fill="#FFFFFF" transform="translate(0,0)"/>
<path d="" fill="#FFFFFF" transform="translate(0,0)"/>
<path d="" fill="#FFFFFF" transform="translate(0,0)"/>
<path d="" fill="#FFFFFF" transform="translate(0,0)"/>
<path d="" fill="#FFFFFF" transform="translate(0,0)"/>
<path d="" fill="#FFFFFF" transform="translate(0,0)"/>
<path d="" fill="#FFFFFF" transform="translate(0,0)"/>
<path d="" fill="#FFFFFF" transform="translate(0,0)"/>
<path d="" fill="#FFFFFF" transform="translate(0,0)"/>
<path d="" fill="#FFFFFF" transform="translate(0,0)"/>
<path d="" fill="#FFFFFF" transform="translate(0,0)"/>
<path d="" fill="#FFFFFF" transform="translate(0,0)"/>
<path d="" fill="#FFFFFF" transform="translate(0,0)"/>
<path d="" fill="#FFFFFF" transform="translate(0,0)"/>
<path d="" fill="#FFFF00" transform="translate(0,0)"/>
<path d="" fill="#FFFFFF" transform="translate(0,0)"/>
<path d="" fill="#FFFFFF" transform="translate(0,0)"/>
<path d="" fill="#FFFFFF" transform="translate(0,0)"/>
<path d="" fill="#FFFFFF" transform="translate(0,0)"/>
<path d="" fill="#FFFFFF" transform="translate(0,0)"/>
<path d="" fill="#FFFFFF" transform="translate(0,0)"/>
<path d="" fill="#FFFFFF" transform="translate(0,0)"/>
<path d="" fill="#FFFFFF" transform="translate(0,0)"/>
<path d="" fill="#FFFFFF" transform="translate(0,0)"/>
<path d="" fill="#FFFFFF" transform="translate(0,0)"/>
<path d="" fill="#FFFFFF" transform="translate(0,0)"/>
<path d="" fill="#FFFFFF" transform="translate(0,0)"/>
<path d="" fill="#FFFFFF" transform="translate(0,0)"/>
<path d="" fill="#FFFFFF" transform="translate(0,0)"/>
<path d="" fill="#FFFFFF" transform="translate(0,0)"/>
<path d="" fill="#FFFFFF" transform="translate(0,0)"/>
<path d="" fill="#FFFFFF" transform="translate(0,0)"/>
<path d="" fill="#FFFFFF" transform="translate(0,0)"/>
<path d="" fill="#FFFFFF" transform="translate(0,0)"/>
<path d="" fill="#FFFFFF" transform="translate(0,0)"/>
<path d="" fill="#FFFFFF" transform="translate(0,0)"/>
<path d="" fill="#FFFFFF" transform="translate(0,0)"/>
<path d="" fill="#FFFFFF" transform="translate(0,0)"/>
<path d="" fill="#FFFFFF" transform="translate(0,0)"/>
<path d="" fill="#FFFFFF" transform="translate(0,0)"/>
<path d="" fill="#FFFFFF" transform="translate(0,0)"/>
<path d="" fill="#FFFFFF" transform="translate(0,0)"/>
<path d="" fill="#FFFFFF" transform="translate(0,0)"/>
<path d="" fill="#FFFFFF" transform="translate(0,0)"/>
<path d="" fill="#FFFFFF" transform="translate(0,0)"/>
<path d="" fill="#FFFFFF" transform="translate(0,0)"/>
<path d="" fill="#FFFFFF" transform="translate(0,0)"/>
<path d="" fill="#FFFFFF" transform="translate(0,0)"/>
</svg>
