<?xml version="1.0" standalone="no"?>
<!DOCTYPE svg PUBLIC "-//W3C//DTD SVG 20010904//EN"
 "http://www.w3.org/TR/2001/REC-SVG-20010904/DTD/svg10.dtd">
<svg version="1.0" xmlns="http://www.w3.org/2000/svg"
 width="282.000000pt" height="247.000000pt" viewBox="0 0 282.000000 247.000000"
 preserveAspectRatio="xMidYMid meet">

<g transform="translate(0.000000,247.000000) scale(0.100000,-0.100000)"
fill="#000000" stroke="none">
<path d="M1223 2446 c-184 -60 -304 -251 -274 -436 22 -134 96 -237 215 -296
243 -119 518 20 567 289 14 75 2 160 -33 235 -33 70 -111 147 -185 184 -57 28
-78 33 -157 35 -57 2 -107 -2 -133 -11z"/>
<path d="M540 2268 c-75 -29 -150 -105 -179 -183 -19 -49 -22 -74 -19 -135 6
-94 37 -159 108 -223 60 -54 131 -81 215 -80 l60 0 69 66 c38 37 73 67 78 67
5 0 1 14 -8 32 -30 58 -54 141 -60 208 -6 59 6 173 22 214 4 10 -11 20 -51 35
-73 27 -162 27 -235 -1z"/>
<path d="M879 1593 c-88 -90 -150 -204 -174 -318 -21 -102 -21 -574 0 -615 30
-58 42 -60 406 -60 312 0 331 1 324 18 -90 210 20 440 237 498 68 18 96 18
178 -2 l68 -17 37 29 c37 28 37 28 31 87 -8 78 -50 199 -94 272 -36 60 -154
185 -174 185 -5 0 -27 -13 -47 -29 -158 -125 -391 -147 -574 -55 -28 15 -68
40 -88 55 -20 16 -41 29 -45 29 -5 0 -43 -35 -85 -77z"/>
<path d="M307 1609 c-42 -32 -114 -139 -144 -215 -27 -69 -28 -70 -28 -322 l0
-254 28 -24 c27 -23 32 -24 207 -24 l179 0 3 263 3 262 31 85 c17 47 34 92 38
102 6 14 -2 18 -51 28 -70 14 -173 63 -204 96 -27 29 -27 29 -62 3z"/>
<path d="M2405 1421 c-72 -33 -125 -111 -125 -183 0 -35 23 -16 -312 -261
l-67 -49 -44 21 c-50 24 -132 28 -180 7 -108 -45 -153 -188 -93 -291 55 -93
181 -127 273 -75 l41 23 190 -139 190 -139 4 -53 c6 -68 47 -128 108 -160 36
-19 57 -23 106 -20 82 5 132 38 168 109 45 90 27 181 -47 246 -51 44 -107 59
-176 45 l-53 -11 -189 137 c-104 75 -188 139 -188 142 0 3 85 67 189 142 183
132 190 137 220 126 51 -17 133 -5 179 26 45 32 91 112 91 160 0 119 -98 216
-215 216 -16 0 -48 -9 -70 -19z"/>
</g>
</svg>
