<?xml version="1.0" encoding="utf-8"?>
<!-- Generator: Adobe Illustrator 27.5.0, SVG Export Plug-In . SVG Version: 6.00 Build 0)  -->
<svg version="1.1" id="Layer_1" xmlns="http://www.w3.org/2000/svg" xmlns:xlink="http://www.w3.org/1999/xlink" x="0px" y="0px"
	 viewBox="0 0 512 512" style="enable-background:new 0 0 512 512;" xml:space="preserve">
<g>
	<path d="M256,152.12c-57.37,0-103.88,46.51-103.88,103.88S198.63,359.88,256,359.88S359.88,313.37,359.88,256
		S313.37,152.12,256,152.12z M184.12,256c0-39.7,32.18-71.88,71.88-71.88s71.88,32.18,71.88,71.88S295.7,327.88,256,327.88
		S184.12,295.7,184.12,256z"/>
	<path d="M313.48,42.96c-16.87-57.28-98.09-57.28-114.95,0l-3.01,10.21c-4.36,14.8-19.89,23.27-34.69,18.91l-5.47-2.26l-9.34-5.12
		C93.53,36.15,36.15,93.56,64.72,146.01l5.09,9.34c7.38,13.55,2.38,30.52-11.17,37.9l-5.47,2.26l-10.21,3.01
		c-57.28,16.87-57.28,98.09,0,114.95l10.21,3.01c14.8,4.36,23.27,19.89,18.91,34.69l-2.26,5.47l-5.12,9.34
		c-28.55,52.48,28.83,109.89,81.32,81.29l9.34-5.09c13.55-7.38,30.52-2.38,37.9,11.17l2.26,5.47l3.01,10.21
		c16.87,57.28,98.09,57.28,114.95,0l3.01-10.21c4.36-14.8,19.89-23.27,34.69-18.91l5.47,2.26l9.34,5.12
		c52.48,28.58,109.89-28.87,81.29-81.32l-5.09-9.34c-7.38-13.55-2.38-30.52,11.17-37.9l5.47-2.26l10.21-3.01
		c57.28-16.87,57.28-98.09,0-114.95l-10.21-3.01c-14.8-4.36-23.27-19.89-18.91-34.69l2.26-5.47l5.12-9.34
		c28.58-52.48-28.87-109.86-81.32-81.29l-9.34,5.09c-13.55,7.38-30.52,2.38-37.9-11.17l-2.26-5.47L313.48,42.96z M229.21,52.02
		c7.87-26.72,45.7-26.72,53.57,0l3.01,10.21c9.36,31.75,42.69,49.91,74.44,40.55c4.07-1.2,8.01-2.83,11.74-4.87l9.31-5.12
		c24.45-13.28,51.2,13.44,37.89,37.92l-5.09,9.34c-15.82,29.08-5.08,65.48,24,81.3c3.72,2.03,7.65,3.65,11.72,4.85l10.18,3.01
		c26.72,7.87,26.72,45.7,0,53.57l-10.21,3.01c-31.75,9.36-49.91,42.69-40.55,74.44c1.2,4.07,2.83,8.01,4.87,11.74l5.12,9.31
		c13.28,24.45-13.44,51.2-37.92,37.89l-9.31-5.09c-29.07-15.84-65.47-5.11-81.31,23.95c-2.04,3.74-3.67,7.68-4.87,11.76l-3.01,10.18
		c-7.87,26.72-45.7,26.72-53.57,0l-3.01-10.21c-9.37-31.75-42.7-49.9-74.45-40.53c-4.06,1.2-7.98,2.82-11.7,4.85l-9.34,5.12
		c-24.45,13.28-51.2-13.44-37.89-37.92l5.09-9.31c15.86-29.06,5.16-65.47-23.9-81.33c-3.74-2.04-7.69-3.68-11.78-4.88l-10.21-3.01
		c-26.72-7.87-26.72-45.7,0-53.57l10.21-3.01c31.75-9.38,49.88-42.71,40.51-74.46c-1.19-4.04-2.81-7.95-4.83-11.66l-5.12-9.34
		c-13.28-24.45,13.44-51.2,37.92-37.89l9.34,5.09c29.07,15.83,65.48,5.09,81.3-23.98c2.02-3.72,3.65-7.64,4.85-11.7L229.21,52.02z"
		/>
</g>
</svg>
