<?xml version="1.0" standalone="no"?>
<!DOCTYPE svg PUBLIC "-//W3C//DTD SVG 20010904//EN"
 "http://www.w3.org/TR/2001/REC-SVG-20010904/DTD/svg10.dtd">
<svg version="1.0" xmlns="http://www.w3.org/2000/svg"
 width="512.000000pt" height="512.000000pt" viewBox="0 0 512.000000 512.000000"
 preserveAspectRatio="xMidYMid meet">

<g transform="translate(0.000000,512.000000) scale(0.100000,-0.100000)"
fill="#000000" stroke="none">
<path d="M380 4944 c-99 -36 -170 -108 -204 -207 -24 -70 -24 -601 0 -675 25
-76 79 -140 154 -181 l65 -36 386 -3 386 -3 72 -73 73 -73 -16 -93 c-9 -52
-16 -137 -17 -189 l0 -96 -41 -30 c-26 -19 -55 -55 -77 -95 -33 -60 -36 -71
-36 -150 1 -72 5 -93 27 -136 39 -75 70 -107 139 -144 50 -26 76 -33 143 -37
l81 -6 35 -59 c20 -35 72 -96 122 -144 l88 -83 0 -53 -1 -53 -115 -52 c-95
-43 -120 -50 -140 -43 -14 6 -52 10 -85 10 l-59 0 0 55 c0 46 -4 60 -25 80
l-24 25 -351 0 -351 0 -24 -25 c-21 -20 -25 -34 -25 -80 l0 -55 -56 0 c-31 0
-75 -5 -98 -12 -55 -16 -138 -99 -154 -154 -8 -28 -12 -124 -12 -288 l0 -247
-29 -37 c-65 -83 -68 -190 -8 -275 17 -26 18 -30 3 -46 -22 -24 -46 -97 -46
-141 0 -45 16 -95 43 -133 17 -26 18 -30 3 -46 -22 -24 -46 -97 -46 -141 0
-51 17 -98 51 -142 27 -34 29 -43 29 -124 0 -48 5 -105 12 -128 16 -55 99
-138 154 -154 56 -16 1055 -17 1105 -1 19 6 51 24 71 40 l37 29 212 0 212 0
43 -40 c58 -53 90 -53 148 0 l43 40 480 0 c546 0 542 0 613 76 22 24 46 56 52
72 8 16 15 103 18 212 l5 184 38 8 c57 12 135 55 207 114 78 64 685 648 713
686 11 14 25 48 32 74 11 46 13 48 63 60 133 34 262 135 321 251 16 34 54 148
83 255 61 225 69 324 33 433 -40 125 -159 251 -274 292 l-49 17 -4 71 c-3 59
-9 81 -33 121 -59 95 -180 138 -281 99 -59 -22 -116 -73 -137 -122 -9 -21 -51
-166 -93 -323 -98 -370 -153 -503 -212 -515 -82 -17 -110 -34 -315 -194 l-219
-171 -41 29 c-89 60 -193 114 -440 230 -142 67 -262 121 -267 121 -6 0 -10 26
-10 58 0 58 0 58 55 104 68 57 136 136 166 193 l23 43 80 4 c68 3 91 10 144
38 70 37 100 68 140 144 22 43 26 64 26 136 0 73 -4 92 -27 138 -25 48 -99
132 -117 132 -4 0 -10 62 -13 138 -8 214 -61 373 -175 522 -279 368 -804 459
-1182 205 l-79 -52 -3 301 -3 301 -34 63 c-37 69 -79 109 -151 144 -45 23 -49
23 -515 25 -409 2 -476 0 -515 -13z m986 -170 c15 -11 37 -33 48 -48 20 -27
21 -41 24 -479 l3 -452 -101 100 -100 100 -409 5 c-394 5 -411 6 -437 26 -15
11 -37 33 -48 48 -20 26 -21 43 -24 299 -2 150 0 286 3 304 7 40 49 91 90 109
24 11 121 13 477 11 434 -2 447 -3 474 -23z m999 -644 c125 -39 202 -87 301
-185 140 -140 201 -277 211 -477 l6 -108 -60 0 c-122 0 -202 50 -256 160 -37
75 -67 93 -120 71 -148 -60 -170 -65 -287 -65 -118 -1 -135 3 -287 65 -53 22
-83 4 -118 -68 -16 -34 -40 -73 -53 -86 -41 -43 -111 -71 -189 -75 l-73 -4 0
73 c0 41 3 84 6 96 6 21 8 21 27 8 32 -22 74 -18 102 10 25 24 25 27 25 189
l0 164 74 69 c100 93 217 153 357 183 74 15 255 5 334 -20z m-405 -742 c97
-32 296 -32 398 0 l74 23 58 -64 c57 -62 142 -117 203 -131 l27 -6 0 -118 c0
-141 -17 -220 -68 -316 -80 -152 -237 -263 -411 -288 -285 -42 -560 144 -626
423 -20 85 -21 299 -1 299 7 0 45 16 84 36 52 25 87 53 129 99 32 35 60 64 63
65 3 0 34 -10 70 -22z m-520 -305 c1 -65 5 -137 9 -160 8 -41 7 -43 -16 -43
-64 0 -136 62 -149 128 -14 71 26 150 91 178 64 28 65 26 65 -103z m1529 89
c49 -36 66 -70 66 -131 0 -48 -5 -64 -29 -95 -30 -40 -78 -66 -119 -66 -23 0
-24 2 -16 43 4 23 8 95 9 161 l0 119 33 -7 c17 -3 43 -14 56 -24z m1456 -77
c32 -31 32 -56 -6 -190 -37 -133 -38 -158 -11 -193 53 -67 57 -80 57 -215 0
-116 2 -130 19 -143 26 -18 76 -18 103 1 63 44 53 316 -16 404 -18 23 -18 61
0 61 26 0 110 -53 143 -90 49 -54 77 -118 83 -189 4 -47 -4 -90 -46 -250 -29
-106 -62 -214 -75 -240 -32 -62 -89 -115 -156 -145 -112 -50 -91 -60 -304 153
l-188 189 26 44 c50 86 88 196 162 473 91 343 81 312 107 335 29 27 73 25 102
-5z m-2390 -762 c92 -18 231 -13 310 12 28 8 51 15 53 15 1 0 2 -37 2 -82 l0
-83 -97 -97 c-95 -95 -99 -98 -143 -98 -43 0 -48 3 -142 97 l-98 98 0 83 c0
76 2 83 18 77 9 -4 53 -14 97 -22z m-835 -213 l0 -120 -240 0 -240 0 0 120 0
120 240 0 240 0 0 -120z m655 -90 l110 -110 -60 -60 -60 -60 -80 101 c-58 74
-83 114 -92 151 -8 28 -12 52 -11 53 11 9 65 34 73 35 6 0 60 -50 120 -110z
m793 82 l53 -28 -113 -142 -113 -142 -60 60 -60 60 110 110 c60 60 114 110
120 110 5 -1 34 -13 63 -28z m1444 -159 c102 -104 188 -197 191 -208 13 -45 4
-55 -640 -666 -179 -171 -278 -178 -446 -30 -64 56 -90 62 -130 31 -34 -27
-42 -64 -21 -98 24 -40 122 -121 182 -150 l52 -26 0 -179 c0 -176 0 -178 -25
-202 l-24 -25 -396 0 -396 0 22 30 22 29 -78 556 -78 556 35 36 36 36 27 -22
c31 -24 73 -27 98 -8 8 6 84 98 167 202 84 105 157 191 164 193 21 5 223 -102
338 -177 59 -39 118 -71 131 -71 16 0 105 63 267 190 213 166 248 190 279 190
34 0 50 -14 223 -187z m-3532 32 c0 -88 2 -98 25 -120 l24 -25 351 0 351 0 24
25 c23 22 25 32 25 120 l0 95 55 0 c46 0 60 -4 80 -25 l25 -24 0 -831 0 -831
-25 -24 -24 -25 -511 0 -511 0 -24 25 c-21 20 -25 34 -25 80 l0 55 96 0 c128
0 168 13 229 75 53 52 75 102 75 167 0 42 -24 115 -46 139 -15 16 -14 20 3 46
64 92 56 204 -22 292 -41 45 -42 47 -29 81 30 83 11 169 -53 240 -51 57 -108
80 -195 80 l-58 0 0 215 c0 216 0 216 25 240 20 21 34 25 80 25 l55 0 0 -95z
m1685 -185 l39 -40 -62 -63 -62 -62 -62 62 -62 63 39 40 c34 35 45 40 85 40
40 0 51 -5 85 -40z m-448 -187 c25 -19 67 -16 98 8 l27 22 34 -34 34 -35 -77
-557 -77 -557 22 -30 23 -30 -101 0 -100 0 0 676 0 677 51 -64 c27 -35 57 -70
66 -76z m-1262 -198 c33 -32 33 -78 0 -110 -21 -22 -33 -25 -95 -25 -62 0 -74
3 -95 25 -16 15 -25 36 -25 55 0 19 9 40 25 55 21 22 33 25 95 25 62 0 74 -3
95 -25z m1649 8 c2 -10 33 -219 68 -466 l63 -447 -78 -77 -77 -78 -75 75 c-48
48 -75 82 -75 97 0 12 27 216 60 455 33 238 60 439 60 446 0 19 48 15 54 -5z
m-1569 -328 c16 -15 25 -36 25 -55 0 -19 -9 -40 -25 -55 -23 -24 -31 -25 -135
-25 -104 0 -112 1 -135 25 -16 15 -25 36 -25 55 0 19 9 40 25 55 23 24 31 25
135 25 104 0 112 -1 135 -25z m0 -320 c16 -15 25 -36 25 -55 0 -19 -9 -40 -25
-55 -23 -24 -31 -25 -135 -25 -104 0 -112 1 -135 25 -16 15 -25 36 -25 55 0
19 9 40 25 55 23 24 31 25 135 25 104 0 112 -1 135 -25z"/>
<path d="M505 4455 c-50 -49 -15 -135 55 -135 41 0 80 39 80 80 0 41 -39 80
-80 80 -19 0 -40 -9 -55 -25z"/>
<path d="M825 4455 c-50 -49 -15 -135 55 -135 41 0 80 39 80 80 0 41 -39 80
-80 80 -19 0 -40 -9 -55 -25z"/>
<path d="M1145 4455 c-50 -49 -15 -135 55 -135 41 0 80 39 80 80 0 41 -39 80
-80 80 -19 0 -40 -9 -55 -25z"/>
<path d="M4345 3815 c-24 -23 -25 -31 -25 -135 0 -104 1 -112 25 -135 15 -16
36 -25 55 -25 19 0 40 9 55 25 24 23 25 31 25 135 0 104 -1 112 -25 135 -15
16 -36 25 -55 25 -19 0 -40 -9 -55 -25z"/>
<path d="M3912 3687 c-14 -14 -22 -36 -22 -57 0 -29 12 -45 78 -112 89 -89
122 -99 167 -53 46 45 36 78 -53 167 -68 68 -83 78 -113 78 -24 0 -43 -7 -57
-23z"/>
<path d="M4718 3632 c-89 -89 -99 -122 -53 -167 45 -46 78 -36 167 53 68 68
78 83 78 113 0 46 -34 79 -80 79 -29 0 -45 -12 -112 -78z"/>
</g>
</svg>
