<?xml version="1.0" standalone="no"?>
<!DOCTYPE svg PUBLIC "-//W3C//DTD SVG 20010904//EN"
 "http://www.w3.org/TR/2001/REC-SVG-20010904/DTD/svg10.dtd">
<svg version="1.0" xmlns="http://www.w3.org/2000/svg"
 width="512.000000pt" height="512.000000pt" viewBox="0 0 512.000000 512.000000"
 preserveAspectRatio="xMidYMid meet">

<g transform="translate(0.000000,512.000000) scale(0.100000,-0.100000)"
fill="#000000" stroke="none">
<path d="M4925 4876 c-140 -58 -4768 -2087 -4815 -2112 -76 -39 -117 -119
-105 -209 12 -97 79 -164 206 -203 36 -11 354 -115 707 -232 l641 -211 3 -672
3 -672 30 -55 c87 -159 301 -186 426 -53 21 21 168 228 329 461 161 233 295
422 299 420 5 -2 290 -246 635 -543 345 -297 643 -548 663 -558 106 -55 257 5
292 115 12 40 881 4420 881 4443 0 26 -31 85 -49 94 -42 22 -68 19 -146 -13z
m-425 -420 c0 -3 -467 -389 -1037 -858 -571 -469 -1053 -867 -1070 -884 -43
-42 -46 -97 -7 -143 22 -26 33 -31 70 -31 52 0 -64 -91 1070 841 446 366 817
669 824 674 7 4 -5 -16 -27 -46 -711 -965 -1860 -2550 -2107 -2909 -180 -261
-338 -485 -350 -498 -29 -29 -73 -22 -87 15 -5 14 -9 314 -9 713 l0 690 -27
29 c-24 25 -132 64 -781 282 l-753 252 1463 639 c805 352 1769 774 2143 938
374 164 681 299 683 299 1 1 2 -1 2 -3z m-74 -2083 c-207 -1049 -380 -1916
-384 -1925 -6 -14 -128 87 -637 524 -346 298 -630 545 -630 550 0 11 2019
2768 2023 2763 2 -2 -166 -862 -372 -1912z"/>
<path d="M2138 2496 c-38 -14 -183 -128 -218 -173 -61 -78 30 -189 125 -153
47 18 217 162 231 196 36 85 -46 162 -138 130z"/>
</g>
</svg>
