<?xml version="1.0" standalone="no"?>
<!DOCTYPE svg PUBLIC "-//W3C//DTD SVG 20010904//EN"
 "http://www.w3.org/TR/2001/REC-SVG-20010904/DTD/svg10.dtd">
<svg version="1.0" xmlns="http://www.w3.org/2000/svg"
 width="245.000000pt" height="197.000000pt" viewBox="0 0 245.000000 197.000000"
 preserveAspectRatio="xMidYMid meet">

<g transform="translate(0.000000,197.000000) scale(0.100000,-0.100000)"
fill="#000000" stroke="none">
<path d="M581 1829 c-30 -5 -75 -19 -100 -32 -61 -29 -151 -120 -181 -182 -97
-202 -13 -443 188 -538 56 -27 81 -32 156 -35 78 -4 97 -1 156 23 119 48 196
132 236 255 l20 65 573 5 c569 5 574 5 588 26 12 19 11 24 -6 45 l-19 24 -562
2 c-310 1 -566 5 -570 10 -4 4 -16 33 -25 63 -38 119 -141 222 -257 258 -52
17 -138 21 -197 11z m194 -119 c61 -26 117 -80 149 -144 26 -50 28 -63 25
-143 -4 -81 -7 -93 -38 -142 -42 -65 -97 -106 -170 -127 -138 -41 -286 22
-354 150 -32 60 -31 203 0 263 41 75 126 143 208 164 42 11 130 1 180 -21z"/>
<path d="M1679 877 c-122 -51 -197 -132 -238 -259 l-23 -68 -567 0 c-428 0
-570 -3 -579 -12 -20 -20 -14 -56 13 -74 23 -15 79 -16 574 -13 359 3 553 1
559 -6 5 -5 18 -35 27 -65 47 -143 167 -246 315 -269 217 -35 408 100 456 322
17 76 17 79 -5 159 -36 135 -101 217 -219 274 -48 23 -73 28 -157 31 -88 3
-107 1 -156 -20z m240 -93 c62 -18 127 -73 168 -142 25 -42 28 -56 28 -137 0
-81 -3 -95 -29 -140 -130 -220 -425 -210 -535 19 -20 41 -23 59 -19 135 4 79
7 93 37 139 78 122 208 169 350 126z"/>
</g>
</svg>
