<?xml version="1.0" standalone="no"?>
<!DOCTYPE svg PUBLIC "-//W3C//DTD SVG 20010904//EN"
 "http://www.w3.org/TR/2001/REC-SVG-20010904/DTD/svg10.dtd">
<svg version="1.0" xmlns="http://www.w3.org/2000/svg"
 width="512.000000pt" height="512.000000pt" viewBox="0 0 512.000000 512.000000"
 preserveAspectRatio="xMidYMid meet">

<g transform="translate(0.000000,512.000000) scale(0.100000,-0.100000)"
fill="#000000" stroke="none">
<path d="M2980 4449 c-508 -65 -974 -336 -1282 -743 -78 -103 -98 -147 -98
-216 0 -174 176 -281 331 -202 43 21 66 44 113 107 33 44 107 127 165 186 464
463 1179 549 1746 211 337 -201 587 -555 672 -952 26 -121 26 -439 0 -560
-105 -493 -454 -900 -916 -1069 -525 -192 -1107 -65 -1502 328 -58 59 -131
141 -162 183 -84 115 -163 153 -267 128 -140 -34 -219 -188 -161 -315 10 -22
47 -78 82 -125 276 -366 678 -618 1141 -716 171 -35 443 -44 620 -20 432 61
793 239 1099 545 289 290 468 642 535 1051 24 143 24 437 0 580 -67 409 -246
761 -535 1051 -371 370 -836 562 -1356 558 -88 -1 -189 -5 -225 -10z"/>
<path d="M2692 3465 c-81 -41 -132 -122 -132 -207 0 -79 36 -131 204 -298 86
-85 156 -158 156 -162 0 -5 -613 -8 -1362 -8 -854 0 -1376 -4 -1398 -10 -84
-23 -160 -128 -160 -220 0 -92 76 -197 160 -220 22 -6 544 -10 1398 -10 749 0
1362 -3 1362 -8 0 -4 -72 -79 -160 -167 -183 -182 -206 -220 -197 -313 8 -73
49 -138 112 -177 42 -26 58 -30 119 -30 49 1 82 6 106 19 19 10 202 185 407
390 403 402 413 414 413 516 0 102 -10 114 -413 516 -205 205 -388 380 -407
389 -19 10 -61 20 -95 22 -51 4 -68 0 -113 -22z"/>
</g>
</svg>
