<?xml version="1.0" standalone="no"?>
<!DOCTYPE svg PUBLIC "-//W3C//DTD SVG 20010904//EN"
 "http://www.w3.org/TR/2001/REC-SVG-20010904/DTD/svg10.dtd">
<svg version="1.0" xmlns="http://www.w3.org/2000/svg"
 width="258.000000pt" height="256.000000pt" viewBox="0 0 258.000000 256.000000"
 preserveAspectRatio="xMidYMid meet">

<g transform="translate(0.000000,256.000000) scale(0.100000,-0.100000)"
fill="#000000" stroke="none">
<path d="M2211 2415 l-106 -104 120 -121 120 -120 103 103 c135 138 136 140
13 260 -68 67 -95 87 -116 87 -22 0 -51 -22 -134 -105z"/>
<path d="M89 2251 l-29 -29 0 -1072 0 -1071 25 -24 24 -25 1076 0 1076 0 24
25 25 24 0 700 c0 623 -2 701 -16 715 -22 22 -146 22 -168 0 -14 -14 -16 -82
-16 -605 0 -606 -1 -617 -39 -646 -23 -18 -1749 -18 -1772 0 -39 30 -39 30
-39 916 l0 860 24 28 24 28 603 3 c419 2 607 6 616 13 20 17 18 153 -3 173
-14 14 -92 16 -710 16 l-696 0 -29 -29z"/>
<path d="M1617 1822 l-417 -417 120 -120 120 -120 420 421 421 420 -116 117
c-64 64 -119 117 -123 117 -4 0 -195 -188 -425 -418z"/>
<path d="M1078 1168 c-32 -95 -56 -174 -54 -176 4 -3 336 105 343 111 1 2 -50
56 -115 120 l-117 117 -57 -172z"/>
</g>
</svg>
