<?xml version="1.0" standalone="no"?>
<!DOCTYPE svg PUBLIC "-//W3C//DTD SVG 20010904//EN"
 "http://www.w3.org/TR/2001/REC-SVG-20010904/DTD/svg10.dtd">
<svg version="1.0" xmlns="http://www.w3.org/2000/svg"
 width="512.000000pt" height="512.000000pt" viewBox="0 0 512.000000 512.000000"
 preserveAspectRatio="xMidYMid meet">

<g transform="translate(0.000000,512.000000) scale(0.100000,-0.100000)"
fill="#000000" stroke="none">
<path d="M2920 4885 c-37 -11 -406 -220 -1155 -657 -605 -353 -1117 -654
-1137 -670 -23 -18 -50 -55 -69 -94 -29 -58 -32 -75 -32 -144 3 -226 122 -413
346 -540 53 -30 97 -57 97 -61 0 -3 -212 -128 -471 -279 -259 -150 -477 -280
-485 -287 -12 -12 -14 -87 -14 -438 0 -388 1 -424 18 -443 31 -36 1809 -1054
1829 -1048 10 4 558 320 1218 704 l1200 698 5 82 5 81 403 234 c221 129 411
242 422 252 19 17 20 31 20 285 0 198 -3 270 -12 282 -7 8 -168 104 -358 213
-190 109 -349 201 -353 205 -5 4 8 17 27 28 l36 21 -2 407 -3 407 -630 365
c-346 201 -652 373 -679 384 -67 26 -158 31 -226 13z m222 -127 c80 -40 1157
-661 1158 -668 0 -5 -1984 -1160 -2050 -1194 l-38 -19 -468 270 c-258 149
-547 316 -642 371 l-174 100 119 70 c603 355 1818 1060 1858 1078 76 36 152
33 237 -8z m1211 -1389 c-9 -9 -2072 -1209 -2079 -1209 -2 0 -4 11 -4 23 0 66
-86 73 -102 9 -5 -18 -12 -31 -16 -29 -4 2 -239 138 -523 302 l-517 297 14 27
c8 14 14 37 14 49 0 13 4 22 8 20 5 -1 198 -112 429 -245 231 -134 429 -243
439 -243 50 0 61 67 16 98 -15 10 -222 130 -460 267 l-432 249 0 63 0 64 28
-15 c15 -8 207 -118 427 -246 272 -157 408 -230 424 -228 31 4 52 36 41 64 -9
23 -1249 744 -1280 744 -37 0 -62 -46 -42 -76 4 -6 36 -29 72 -51 l65 -40 3
-61 c2 -34 0 -62 -4 -62 -4 0 -22 9 -40 21 -45 28 -86 22 -98 -13 -12 -35 2
-51 83 -98 l61 -35 0 -58 0 -58 -31 18 c-44 26 -129 120 -161 179 -15 28 -34
77 -43 109 -42 164 7 281 134 315 62 16 113 1 229 -69 53 -32 334 -194 624
-360 l527 -303 3 -185 c3 -179 4 -185 26 -203 13 -11 31 -16 40 -13 38 13 42
32 42 218 l0 180 1043 606 1042 606 3 -310 c1 -171 -1 -314 -5 -318z m-3340
-183 c14 -11 17 -29 17 -101 0 -75 -2 -86 -16 -81 -9 3 -20 6 -25 6 -5 0 -9
43 -9 95 0 52 3 95 8 95 4 0 15 -7 25 -14z m3612 -178 c250 -145 331 -196 322
-204 -20 -18 -2204 -1284 -2216 -1284 -10 0 -1427 814 -1444 830 -9 7 149 103
161 97 4 -2 177 -102 385 -222 350 -201 380 -217 404 -206 14 6 277 158 584
336 308 179 563 325 568 325 4 0 111 -59 236 -130 135 -77 236 -128 245 -125
33 10 625 345 644 364 41 41 21 60 -199 186 -113 64 -205 120 -205 124 0 7
160 101 173 101 4 0 158 -87 342 -192z m-387 -109 l134 -77 -44 -25 c-158 -91
-459 -257 -467 -257 -20 0 -362 203 -354 210 4 5 116 71 248 148 l240 140 55
-31 c30 -17 115 -66 188 -108z m-3235 -49 c22 -36 19 -36 -28 -9 -27 16 -33
24 -23 30 22 15 33 10 51 -21z m4017 -319 l0 -188 -1102 -641 c-607 -352
-1110 -644 -1119 -647 -12 -5 -18 2 -22 24 -5 22 -14 32 -32 37 -30 7 -65 -18
-65 -48 0 -10 -3 -18 -7 -18 -5 0 -372 211 -818 468 l-810 468 -3 192 -2 193
48 -28 c26 -15 395 -228 820 -473 l771 -445 1 -82 c0 -85 12 -113 49 -113 40
0 50 22 53 110 l3 85 1114 647 c613 357 1116 648 1118 648 2 0 3 -85 3 -189z
m-3880 89 c0 -3 -45 -31 -99 -63 -97 -56 -111 -70 -111 -106 0 -13 -70 -59
-242 -159 -134 -77 -249 -146 -255 -153 -20 -20 -15 -56 9 -73 28 -20 37 -16
283 128 l200 116 5 -186 c5 -173 6 -187 26 -202 11 -10 262 -156 557 -327 296
-170 537 -312 537 -315 0 -8 -200 -123 -214 -123 -12 0 -1644 939 -1663 957
-9 8 102 77 449 278 l461 267 29 -17 c15 -9 28 -19 28 -22z m151 -82 c22 -12
39 -24 39 -27 0 -8 -146 -91 -159 -91 -5 0 -26 10 -46 21 l-37 22 29 17 c15 9
51 31 78 48 28 17 52 31 54 31 2 1 21 -9 42 -21z m-292 -1023 l780 -450 1
-195 c0 -212 6 -240 54 -240 50 0 55 20 58 235 l3 199 133 78 134 78 59 -33
c32 -17 59 -35 59 -39 0 -3 -59 -39 -130 -79 -97 -54 -132 -79 -136 -96 -7
-28 19 -63 48 -63 10 0 85 38 167 85 81 46 153 85 158 87 10 3 152 -73 153
-82 0 -3 -109 -68 -242 -145 -289 -167 -296 -172 -283 -211 20 -57 43 -49 351
131 l285 166 35 -22 c19 -11 43 -19 53 -16 10 2 329 185 709 406 380 220 698
404 707 407 13 5 16 2 14 -11 -3 -11 -411 -253 -1138 -676 -623 -362 -1135
-659 -1137 -659 -2 0 -4 10 -4 23 0 33 -28 67 -54 67 -28 0 -41 -14 -53 -58
l-8 -32 -825 476 c-454 262 -831 481 -837 486 -10 8 -13 92 -13 355 l0 345 59
-34 c32 -18 410 -235 840 -483z"/>
<path d="M2491 4451 c-24 -24 -26 -40 -8 -63 20 -27 1053 -618 1079 -618 56 0
65 56 16 93 -42 31 -1027 599 -1049 604 -10 3 -27 -5 -38 -16z"/>
<path d="M2352 4198 c-7 -7 -12 -25 -12 -40 0 -21 9 -33 38 -51 117 -74 651
-377 664 -377 21 0 48 33 48 58 0 11 -12 29 -27 40 -76 52 -662 382 -679 382
-11 0 -25 -5 -32 -12z"/>
<path d="M3300 3265 c-487 -283 -895 -523 -907 -534 -13 -11 -23 -26 -23 -33
0 -25 26 -50 52 -50 32 0 1796 1023 1822 1056 18 23 18 26 2 50 -10 16 -26 26
-39 26 -12 -1 -420 -232 -907 -515z"/>
<path d="M3290 2980 c-595 -345 -900 -527 -910 -544 -13 -22 -13 -27 4 -45 11
-12 29 -21 41 -21 29 0 1806 1032 1824 1059 11 18 11 24 -3 46 -9 14 -26 25
-39 25 -12 0 -425 -234 -917 -520z"/>
<path d="M3880 1925 c-525 -305 -961 -563 -967 -572 -7 -9 -13 -22 -13 -28 0
-22 27 -47 51 -47 13 0 441 242 979 555 1015 590 998 579 955 627 -10 11 -25
20 -34 20 -9 0 -446 -250 -971 -555z"/>
<path d="M1169 2091 c-20 -16 -22 -23 -14 -47 8 -23 118 -90 674 -411 365
-210 675 -383 687 -383 32 0 59 42 45 68 -10 18 -1338 792 -1359 792 -6 0 -20
-9 -33 -19z"/>
<path d="M248 1748 c-23 -18 -30 -51 -16 -70 19 -24 1364 -798 1388 -798 11 0
27 11 36 25 15 22 15 27 1 48 -13 21 -1361 807 -1383 807 -6 0 -17 -6 -26 -12z"/>
<path d="M248 1478 c-23 -18 -30 -51 -16 -70 19 -25 1364 -798 1387 -798 11 0
28 11 37 25 15 22 15 27 1 48 -13 21 -1361 807 -1383 807 -6 0 -17 -6 -26 -12z"/>
</g>
</svg>
