<?xml version="1.0" standalone="no"?>
<!DOCTYPE svg PUBLIC "-//W3C//DTD SVG 20010904//EN"
 "http://www.w3.org/TR/2001/REC-SVG-20010904/DTD/svg10.dtd">
<svg version="1.0" xmlns="http://www.w3.org/2000/svg"
 width="500.000000pt" height="500.000000pt" viewBox="0 0 500.000000 500.000000"
 preserveAspectRatio="xMidYMid meet">

<g transform="translate(0.000000,500.000000) scale(0.100000,-0.100000)"
fill="#000000" stroke="none">
<path d="M2219 4635 c-196 -33 -432 -129 -590 -241 -162 -114 -318 -283 -420
-454 -175 -295 -239 -692 -164 -1017 37 -161 229 -472 627 -1018 76 -104 138
-194 139 -200 0 -5 -53 -19 -118 -31 -311 -57 -577 -150 -748 -259 -87 -56
-186 -159 -221 -230 -25 -51 -29 -72 -29 -140 0 -71 4 -89 33 -147 123 -250
569 -440 1232 -524 198 -25 750 -30 970 -9 715 67 1221 271 1348 542 22 48 27
72 27 138 0 68 -4 89 -29 140 -59 121 -217 246 -416 330 -176 75 -487 157
-680 181 -83 10 -84 12 -33 79 197 262 456 636 563 814 146 243 176 337 187
576 22 519 -237 1001 -687 1278 -149 91 -336 161 -514 192 -108 18 -368 19
-477 0z m457 -180 c170 -30 338 -98 494 -200 97 -64 273 -239 335 -335 177
-272 246 -577 200 -885 -12 -83 -24 -117 -65 -200 -80 -161 -255 -428 -518
-789 -295 -404 -652 -867 -666 -863 -34 10 -706 908 -938 1253 -283 420 -321
513 -320 784 0 264 66 480 215 702 181 272 490 472 821 533 102 18 335 18 442
0z m459 -2936 c382 -55 697 -161 873 -294 68 -52 122 -130 122 -178 0 -105
-152 -235 -380 -323 -343 -132 -740 -194 -1250 -194 -270 0 -410 9 -632 40
-547 77 -970 272 -995 460 -4 29 1 50 23 89 90 167 459 323 937 396 120 19
116 20 165 -49 l33 -45 -28 -7 c-248 -56 -358 -102 -435 -181 -43 -45 -58 -79
-58 -135 0 -167 225 -284 655 -339 131 -17 550 -17 675 0 432 59 650 173 650
339 0 56 -15 90 -58 135 -74 77 -203 131 -410 173 -70 14 -128 26 -129 27 -5
6 81 107 91 107 6 0 74 -9 151 -21z m-150 -289 c50 -10 119 -28 155 -39 71
-23 170 -76 170 -91 0 -17 -88 -68 -154 -90 -177 -58 -378 -84 -661 -84 -368
1 -677 61 -785 152 l-25 22 25 20 c45 35 172 82 290 106 63 13 126 24 140 24
20 0 40 -20 100 -97 169 -220 190 -238 250 -213 15 6 75 74 146 166 l119 155
70 -6 c39 -4 111 -15 160 -25z"/>
<path d="M2292 3900 c-251 -66 -437 -277 -473 -537 -11 -83 -7 -152 18 -248
41 -162 179 -329 334 -403 112 -54 174 -67 299 -66 85 1 120 6 181 27 202 68
344 208 417 409 23 64 27 88 27 198 -1 160 -23 236 -106 361 -83 124 -244 233
-390 265 -91 19 -220 17 -307 -6z m330 -190 c166 -62 282 -219 295 -396 18
-233 -155 -448 -390 -484 -305 -47 -569 213 -526 518 25 176 161 328 339 379
66 19 211 11 282 -17z"/>
</g>
</svg>
