<?xml version="1.0" encoding="UTF-8"?>
<svg version="1.1" xmlns="http://www.w3.org/2000/svg" width="512" height="512">
<path d="M0 0 C1.15218018 0.28206299 1.15218018 0.28206299 2.32763672 0.56982422 C21.82305292 5.45436442 39.8731562 14.01637729 56 26 C56.93585938 26.69351563 57.87171875 27.38703125 58.8359375 28.1015625 C91.13313765 53.38998608 111.92567279 90.30561845 117 131 C117.50440822 136.82646784 117.53660621 142.65555006 117.5 148.5 C117.49790527 149.27658966 117.49581055 150.05317932 117.49365234 150.853302 C117.26400065 192.47076009 100.68040205 228.37616367 72 258 C71.195625 258.56203125 70.39125 259.1240625 69.5625 259.703125 C67.79141857 261.79701429 67.79141857 261.79701429 68.13179016 263.87388611 C69.83677435 271.78873186 72.07609422 279.53671269 74.35546875 287.30078125 C74.80661379 288.84963503 75.25730858 290.39862001 75.70759583 291.94772339 C76.68321127 295.30218582 77.66100859 298.65600142 78.64038086 302.0093689 C81.33025083 311.2235298 83.9976399 320.44422402 86.66796875 329.6640625 C87.09571405 331.14043591 87.09571405 331.14043591 87.53210068 332.64663506 C94.33491278 356.12801929 101.11075364 379.61712806 107.83255672 403.12184048 C109.58895893 409.26323702 111.34906146 415.40351355 113.11849976 421.54116821 C114.79732943 427.36501806 116.46603716 433.19167389 118.12714195 439.02060318 C118.74431608 441.17979706 119.3650918 443.33796515 119.9896946 445.49502182 C120.84803983 448.46165933 121.69316074 451.43176373 122.53515625 454.40307617 C122.78737536 455.26332555 123.03959448 456.12357492 123.2994566 457.00989246 C124.74548702 462.17749109 125.37427596 466.62842556 125 472 C123.5 474.5 123.5 474.5 121 476 C114.38532138 476.65096837 110.95062334 475.40095496 105.5625 471.6875 C104.87639648 471.23673096 104.19029297 470.78596191 103.48339844 470.3215332 C102.03703615 469.37003954 100.5955115 468.41115517 99.15869141 467.4453125 C96.40330625 465.60049457 93.61446426 463.81071286 90.82373047 462.02001953 C87.20589915 459.69530522 83.60451448 457.34528567 80 455 C78.16023377 453.80456819 76.32038661 452.60926092 74.48046875 451.4140625 C69.65268335 448.27752069 64.825974 445.13932806 60 442 C55.10866096 450.45941728 50.44149886 458.98165371 46.125 467.75 C42.57938868 474.93436235 38.90308007 482.0310284 35.0625 489.0625 C34.60182129 489.91360352 34.14114258 490.76470703 33.66650391 491.64160156 C33.23128418 492.43147461 32.79606445 493.22134766 32.34765625 494.03515625 C31.96617432 494.7300415 31.58469238 495.42492676 31.19165039 496.14086914 C29.93620282 498.09953196 28.82147034 499.54721683 27 501 C20.09597373 501.65752631 20.09597373 501.65752631 16.97912598 499.7875824 C14.55647183 497.59939733 14.11549024 496.14255315 13.29882812 493.00024414 C13.01567749 491.9433287 12.73252686 490.88641327 12.4407959 489.79747009 C12.14064575 488.61778152 11.84049561 487.43809296 11.53125 486.22265625 C11.013088 484.26743205 10.4948933 482.31221639 9.97589874 480.35721302 C9.3968228 478.16658757 8.82466545 475.97423425 8.25341797 473.78155518 C6.92030967 468.67786265 5.55013174 463.58441725 4.17578125 458.49169922 C2.06370303 450.66098668 -0.04201563 442.82862269 -2.13916016 434.99389648 C-2.41276178 433.97178479 -2.68636341 432.9496731 -2.968256 431.89658833 C-3.52843386 429.80372179 -4.088578 427.71084624 -4.64868927 425.61796188 C-5.79722613 421.32707539 -6.94658191 417.03640842 -8.09591866 412.74573612 C-17.08941323 379.17061756 -26.06127957 345.58974462 -35 312 C-42.45238718 339.02953518 -49.77283433 366.09278913 -56.984375 393.1875 C-57.29106865 394.33947939 -57.5977623 395.49145878 -57.91374969 396.67834663 C-61.03918614 408.41849691 -64.16166867 420.15942221 -67.27608109 431.90250206 C-68.47058379 436.40429534 -69.66739684 440.90547255 -70.86463165 445.40653992 C-71.42126703 447.50148894 -71.9768751 449.59671128 -72.53130341 451.69224548 C-74.32462061 458.46973987 -76.14989877 465.23779748 -78 472 C-78.29315094 473.0820232 -78.58630188 474.1640464 -78.88833618 475.27885818 C-79.79174653 478.59389527 -80.71455495 481.90296015 -81.64257812 485.21118164 C-81.91865654 486.23219939 -82.19473495 487.25321714 -82.47917938 488.30517483 C-85.05069814 497.32718824 -85.05069814 497.32718824 -89 500 C-93.03018521 500.58620876 -95.11782819 500.58887877 -98.53637695 498.30688477 C-101.16275389 495.84760069 -102.43013597 493.81931464 -103.98046875 490.58984375 C-104.49996094 489.52636719 -105.01945312 488.46289062 -105.5546875 487.3671875 C-106.09351563 486.23539062 -106.63234375 485.10359375 -107.1875 483.9375 C-108.33556745 481.58121579 -109.48532164 479.22575271 -110.63671875 476.87109375 C-111.20310059 475.70690918 -111.76948242 474.54272461 -112.35302734 473.34326172 C-114.64917319 468.68221499 -117.0579743 464.08588891 -119.5 459.5 C-122.75252013 453.37434514 -125.95570935 447.23278453 -129 441 C-135.52001692 444.43782711 -141.6724355 448.31759296 -147.83886719 452.34130859 C-155.0255654 457.0302479 -162.26495495 461.633994 -169.51245117 466.22827148 C-170.39908447 466.79102783 -171.28571777 467.35378418 -172.19921875 467.93359375 C-173.03445068 468.46267334 -173.86968262 468.99175293 -174.73022461 469.53686523 C-176.65759086 470.7792774 -178.54203799 472.06270502 -180.421875 473.375 C-183.89605795 475.56478804 -185.97004375 475.65944739 -190 475 C-192.9375 473 -192.9375 473 -195 470 C-195.78138039 462.53605986 -193.55337226 456.01748606 -191.41796875 448.91796875 C-191.01906668 447.56231711 -190.62124153 446.20634821 -190.22438049 444.85009766 C-189.35250927 441.87632089 -188.4745401 438.90443386 -187.59240723 435.9336853 C-186.15944408 431.10221963 -184.74911736 426.26431984 -183.34277344 421.42504883 C-179.17574371 407.09639138 -174.99743947 392.7710275 -170.77862549 378.45751953 C-170.49240992 377.4864402 -170.49240992 377.4864402 -170.20041221 376.4957431 C-169.80807074 375.16465507 -169.41572798 373.83356743 -169.02338398 372.50248015 C-165.12614576 359.27974912 -161.25712896 346.04911954 -157.42063808 332.80862904 C-155.18363943 325.09240976 -152.92319344 317.38381582 -150.6334936 309.68306792 C-149.0447298 304.33232854 -147.48341742 298.97405027 -145.94273072 293.60927236 C-145.03975839 290.46838031 -144.12075984 287.33376916 -143.17746162 284.20471191 C-142.14474443 280.7719201 -141.15848861 277.32894753 -140.18261719 273.87963867 C-139.8682883 272.87390903 -139.55395941 271.86817938 -139.2301054 270.83197308 C-137.7346065 265.73816377 -137.7346065 265.73816377 -139.1398983 260.84244061 C-140.65819255 259.04395362 -142.20910197 257.52234884 -144 256 C-144.6305127 255.35538818 -145.26102539 254.71077637 -145.91064453 254.04663086 C-146.43770996 253.54526611 -146.96477539 253.04390137 -147.5078125 252.52734375 C-167.16366634 233.13594264 -179.38974994 205.69151931 -185 179 C-185.27928345 177.70654663 -185.27928345 177.70654663 -185.56420898 176.38696289 C-187.1556626 168.13249138 -187.33935949 160.02277857 -187.31567383 151.64770508 C-187.31252788 149.33300975 -187.33601249 147.01961538 -187.36132812 144.70507812 C-187.42074794 130.87137462 -185.4837715 117.5116402 -181.4375 104.25 C-181.06286621 103.02083862 -181.06286621 103.02083862 -180.68066406 101.7668457 C-175.6203319 85.97351907 -167.87681964 71.29163405 -158 58 C-157.30648437 57.06414062 -156.61296875 56.12828125 -155.8984375 55.1640625 C-134.00472488 27.20242953 -104.25950174 8.73565543 -70 0 C-69.30696777 -0.18079102 -68.61393555 -0.36158203 -67.89990234 -0.54785156 C-47.10594633 -5.70151496 -20.70266331 -5.33774813 0 0 Z M-123 46 C-123.80824219 46.67417969 -124.61648437 47.34835938 -125.44921875 48.04296875 C-144.96279583 64.86079264 -159.23441528 88.19685107 -166 113 C-166.19609863 113.68884277 -166.39219727 114.37768555 -166.59423828 115.08740234 C-172.67391823 137.22380039 -172.27180122 162.9688166 -166 185 C-165.81808105 185.66692871 -165.63616211 186.33385742 -165.44873047 187.02099609 C-160.27995704 205.55744627 -150.36675608 222.38263352 -138 237 C-136.98486328 238.21816406 -136.98486328 238.21816406 -135.94921875 239.4609375 C-112.96295904 266.10314711 -79.42382347 281.48425706 -44.66430664 284.73095703 C-10.7500357 287.12643409 24.55886844 276.42187047 50.45703125 254.234375 C51.29621094 253.49703125 52.13539063 252.7596875 53 252 C53.82886719 251.30390625 54.65773438 250.6078125 55.51171875 249.890625 C75.00716451 233.11903273 89.24817436 209.75270711 96 185 C96.19609863 184.31115723 96.39219727 183.62231445 96.59423828 182.91259766 C102.67391823 160.77619961 102.27180122 135.0311834 96 113 C95.81808105 112.33307129 95.63616211 111.66614258 95.44873047 110.97900391 C90.27995704 92.44255373 80.36675608 75.61736648 68 61 C67.32324219 60.18789062 66.64648438 59.37578125 65.94921875 58.5390625 C42.96295904 31.89685289 9.42382347 16.51574294 -25.33569336 13.26904297 C-61.13194329 10.74063551 -95.87225573 22.83119685 -123 46 Z M-123 274 C-134.82490651 314.2936743 -146.35871673 354.66981912 -157.87581539 395.05234146 C-159.1766388 399.61324485 -160.47787311 404.17403097 -161.77909279 408.73482132 C-162.68498154 411.91097241 -163.59004561 415.08735766 -164.49504089 418.26376343 C-165.04980358 420.20881029 -165.60459624 422.1538486 -166.15942383 424.09887695 C-166.5263695 425.38823607 -166.5263695 425.38823607 -166.90072823 426.70364285 C-167.13412344 427.52128644 -167.36751865 428.33893003 -167.60798645 429.18135071 C-167.83165705 429.96923288 -168.05532764 430.75711506 -168.28577614 431.56887245 C-168.79337422 433.29667203 -169.32700008 435.01691816 -169.8782711 436.73128319 C-170.16265352 437.6222954 -170.44703594 438.51330761 -170.74003601 439.43132019 C-171.13664696 440.63728741 -171.13664696 440.63728741 -171.54127026 441.86761761 C-172.22580275 444.17038559 -172.22580275 444.17038559 -171 447 C-170.13761719 446.41734375 -169.27523437 445.8346875 -168.38671875 445.234375 C-158.76777542 438.76422775 -149.02080401 432.51283592 -139.18725586 426.37402344 C-137.70775704 425.44460951 -136.23472815 424.50482902 -134.76782227 423.55566406 C-133.71099243 422.87648926 -133.71099243 422.87648926 -132.6328125 422.18359375 C-132.00906738 421.77810303 -131.38532227 421.3726123 -130.74267578 420.95483398 C-127.94338623 419.42106803 -126.09001164 419.31333075 -123 420 C-117.99800179 424.09775277 -115.54711451 429.17414737 -112.69921875 434.89453125 C-112.2179805 435.84188644 -111.73674225 436.78924164 -111.24092102 437.76530457 C-109.71392507 440.77649045 -108.20057016 443.79429663 -106.6875 446.8125 C-105.65128503 448.86178063 -104.6141852 450.91061408 -103.57617188 452.95898438 C-101.04051053 457.96752281 -98.51599832 462.98155779 -96 468 C-93.82114859 464.73172288 -92.95364004 461.67920293 -91.97900391 457.93920898 C-91.78612038 457.21738214 -91.59323685 456.49555529 -91.39450836 455.7518549 C-90.74995963 453.33462677 -90.11335609 450.91537542 -89.4765625 448.49609375 C-89.01842391 446.77276743 -88.55974258 445.04958531 -88.10055542 443.32653809 C-86.86019766 438.66708135 -85.62641854 434.00590661 -84.39401245 429.34434128 C-82.32837591 421.53630441 -80.25222819 413.73104979 -78.17707062 405.92553902 C-77.64555298 403.92594289 -77.11427936 401.92628189 -76.58324432 399.92655754 C-73.01306356 386.48439922 -69.39589138 373.05615348 -65.71699142 359.64333916 C-65.00095633 357.03197966 -64.28632267 354.42024085 -63.57217407 351.80836487 C-63.10981796 350.11776304 -62.64744632 348.42716545 -62.18505859 346.73657227 C-61.96070696 345.9162404 -61.73635532 345.09590853 -61.50520515 344.25071812 C-60.17926475 339.40654551 -58.84386807 334.56509408 -57.50219917 329.72525597 C-56.67561757 326.734772 -55.85795908 323.7419023 -55.04272842 320.74830627 C-54.66513896 319.3694855 -54.28367982 317.9917176 -53.89803696 316.61512756 C-53.37445552 314.74481737 -52.8655513 312.87041682 -52.35742188 310.99584961 C-52.06927612 309.95174423 -51.78113037 308.90763885 -51.48425293 307.83189392 C-50.97793202 304.87094722 -51.20870375 302.87550963 -52 300 C-53.10214844 299.84144531 -54.20429688 299.68289063 -55.33984375 299.51953125 C-77.40218472 296.19496808 -96.98100584 289.05618803 -116.1796875 277.6640625 C-118.42532834 276.3390722 -120.66323812 275.14804767 -123 274 Z M44.25 278.5625 C27.63490888 289.0895294 9.26928682 295.37595982 -10 299 C-11.7379918 299.34486236 -13.47560041 299.69165957 -15.21289062 300.04003906 C-16.11027954 300.21988342 -17.00766846 300.39972778 -17.93225098 300.58502197 C-18.61460815 300.72196472 -19.29696533 300.85890747 -20 301 C-13.83057574 325.23384428 -7.45904082 349.40886671 -0.95838928 373.55582809 C-0.23893259 376.22861551 0.48003682 378.90153355 1.19885254 381.57449341 C3.12772059 388.74704882 5.05677344 395.9195539 6.98822021 403.09141541 C9.42463878 412.13884712 11.85535255 421.18774386 14.27410889 430.23991394 C15.48986922 434.78795177 16.7097431 439.33487819 17.93078613 443.88150024 C18.47262691 445.90278594 19.01261521 447.92456922 19.55065918 449.9468689 C20.27351687 452.66257879 21.00301538 455.37641342 21.734375 458.08984375 C21.93853027 458.86382507 22.14268555 459.6378064 22.35302734 460.4352417 C23.24720616 463.72688533 24.0891422 466.13371331 26 469 C26.40343376 468.20526276 26.40343376 468.20526276 26.8150177 467.39447021 C29.61696331 461.87668582 32.42424069 456.36163843 35.23461914 450.84814453 C36.28253759 448.79057295 37.32909804 446.73230914 38.37426758 444.67333984 C39.8774473 441.71268278 41.38550511 438.75455557 42.89453125 435.796875 C43.36027054 434.87694763 43.82600983 433.95702026 44.30586243 433.00921631 C44.74609238 432.1486261 45.18632233 431.28803589 45.63989258 430.40136719 C46.02405838 429.64635925 46.40822418 428.89135132 46.80403137 428.11346436 C48.82335306 424.54500585 50.061579 422.37936168 53.9375 420.8125 C60.03922759 420.31776533 65.13709614 424.81495551 70 428 C71.35346912 428.8682758 72.70766996 429.73541177 74.0625 430.6015625 C77.67397236 432.91895484 81.2694583 435.26005654 84.86181641 437.60693359 C88.25217851 439.8158176 91.65698343 442.00208049 95.0625 444.1875 C95.66433105 444.57405762 96.26616211 444.96061523 96.88623047 445.35888672 C98.25731975 446.23951824 99.62863162 447.11980318 101 448 C102.46210605 445.0757879 101.46735915 443.4578804 100.57287598 440.34030151 C100.23097229 439.13535538 99.8890686 437.93040924 99.5368042 436.68894958 C99.14771705 435.34581687 98.75849113 434.00272436 98.36914062 432.65966797 C97.96623578 431.25023364 97.56396828 429.84061699 97.16229248 428.43083191 C96.06502282 424.58665833 94.95874893 420.74512712 93.85089302 416.90399313 C92.68790866 412.86610297 91.53306463 408.82588604 90.37731934 404.78591919 C88.17799253 397.10283022 85.97116195 389.42191717 83.76174307 381.74172509 C81.27614387 373.10001826 78.79933027 364.45580204 76.32308674 355.81141067 C64.74203835 315.38243547 64.74203835 315.38243547 53 275 C49.07096463 275 47.52739861 276.41425489 44.25 278.5625 Z " fill="#000000" transform="translate(291,7)"/>
<path d="M0 0 C19.64310634 16.50723368 34.95998326 37.87100875 38 64 C40.00706443 92.38316441 35.11130766 117.2402984 16.84375 139.64453125 C0.42107852 158.46699451 -21.83614019 172.43272251 -47.21777344 174.22753906 C-75.8329536 175.49950262 -100.20094475 169.80835389 -122.1875 150.625 C-140.72962913 133.23989973 -153.23970686 111.00534464 -154.3828125 85.2890625 C-155.09445376 56.78869783 -148.21659255 32.57486407 -128.3359375 11.37109375 C-94.61920639 -22.8530798 -39.12763276 -29.61944513 0 0 Z M-116 23 C-132.18115275 39.83936913 -137.56951323 61.15434883 -137.26953125 83.8984375 C-136.7620394 100.21317535 -129.63316977 116.61813918 -119 129 C-118.50371094 129.63808594 -118.00742188 130.27617187 -117.49609375 130.93359375 C-104.31705774 147.22478766 -84.05394971 155.5634442 -63.6875 157.8125 C-42.01028523 159.06763427 -20.89122134 151.62126285 -4.57348633 137.40649414 C10.39038107 123.69638755 20.36306406 104.77449232 21.30859375 84.38671875 C21.92679409 63.14112169 17.12090683 43.44317798 3 27 C2.50371094 26.36191406 2.00742187 25.72382812 1.49609375 25.06640625 C-11.68294226 8.77521234 -31.94605029 0.4365558 -52.3125 -1.8125 C-76.67946515 -3.22337374 -98.71127446 6.27657339 -116 23 Z " fill="#000000" transform="translate(314,78)"/>
</svg>
