<?xml version="1.0" standalone="no"?>
<!DOCTYPE svg PUBLIC "-//W3C//DTD SVG 20010904//EN"
 "http://www.w3.org/TR/2001/REC-SVG-20010904/DTD/svg10.dtd">
<svg version="1.0" xmlns="http://www.w3.org/2000/svg"
 width="195.000000pt" height="188.000000pt" viewBox="0 0 195.000000 188.000000"
 preserveAspectRatio="xMidYMid meet">

<g transform="translate(0.000000,188.000000) scale(0.100000,-0.100000)"
fill="#000000" stroke="none">
<path d="M174 1765 c-42 -29 -45 -56 -42 -369 l3 -298 33 -29 32 -29 305 0
305 0 32 29 33 29 3 274 c4 310 0 351 -33 384 l-24 24 -313 0 c-259 0 -317 -3
-334 -15z m586 -350 l0 -255 -255 0 -255 0 0 255 0 255 255 0 255 0 0 -255z"/>
<path d="M1390 1625 l0 -155 -155 0 -155 0 0 -55 0 -55 155 0 155 0 0 -160 0
-160 55 0 54 0 3 158 3 157 158 3 157 3 0 54 0 55 -160 0 -160 0 0 155 0 155
-55 0 -55 0 0 -155z"/>
<path d="M177 829 c-43 -25 -47 -53 -47 -354 0 -312 4 -340 56 -364 17 -7 122
-11 324 -11 l300 0 32 29 33 29 3 289 c3 315 -2 357 -48 380 -32 16 -625 18
-653 2z m583 -359 l0 -260 -255 0 -255 0 0 260 0 260 255 0 255 0 0 -260z"/>
<path d="M1111 814 l-31 -26 0 -313 0 -314 24 -28 24 -28 306 -3 c336 -3 352
-1 375 56 8 20 11 115 9 331 l-3 303 -28 24 -28 24 -309 0 -308 0 -31 -26z
m589 -344 l0 -260 -252 2 -253 3 -3 258 -2 257 255 0 255 0 0 -260z"/>
</g>
</svg>
