<?xml version="1.0" encoding="UTF-8"?>
<svg version="1.1" xmlns="http://www.w3.org/2000/svg" width="173" height="128">
<path d="M0 0 C2.19826698 -0.36914349 2.19826698 -0.36914349 4.98599243 -0.36076355 C6.04051102 -0.36488754 7.0950296 -0.36901154 8.1815033 -0.3732605 C9.92398094 -0.35708176 9.92398094 -0.35708176 11.70166016 -0.34057617 C12.92114853 -0.34101425 14.1406369 -0.34145233 15.39707947 -0.34190369 C18.74624398 -0.34016855 22.0948575 -0.32509703 25.44392443 -0.30418181 C28.94195981 -0.28546052 32.44000209 -0.28366818 35.93807983 -0.28010559 C42.56441181 -0.2707717 49.19059575 -0.24613988 55.81686246 -0.21605712 C63.35967068 -0.1825548 70.90248587 -0.16603762 78.44534993 -0.15097082 C93.96365477 -0.11959137 109.48180251 -0.06620246 125 0 C125.33 3.63 125.66 7.26 126 11 C127.21558594 11.06058594 128.43117187 11.12117188 129.68359375 11.18359375 C131.26824228 11.26798332 132.85287702 11.3526321 134.4375 11.4375 C135.23994141 11.47681641 136.04238281 11.51613281 136.86914062 11.55664062 C142.88671875 11.88671875 142.88671875 11.88671875 144 13 C144.11097714 15.45240909 144.15738562 17.8769222 144.16113281 20.33032227 C144.16609772 21.09790359 144.17106262 21.86548492 144.17617798 22.65632629 C144.19084593 25.20969526 144.19761179 27.76300197 144.203125 30.31640625 C144.20887583 32.08943178 144.21463357 33.8624573 144.22039795 35.63548279 C144.23092327 39.36221609 144.23675485 43.08892774 144.24023438 46.81567383 C144.24570043 51.57812442 144.26968126 56.34028639 144.29820633 61.10264683 C144.31689181 64.77022617 144.32204161 68.43773712 144.32357025 72.10536003 C144.32658763 73.85993961 144.33458513 75.61451824 144.34775543 77.36905098 C144.36492801 79.83422376 144.36290787 82.29870668 144.35644531 84.76391602 C144.3656601 85.48164185 144.37487488 86.19936768 144.3843689 86.93884277 C144.31867186 94.99219424 141.68453535 101.31546465 136 107 C131.69633776 109.55120671 128.44834116 110.39512169 123.46875 110.51171875 C121.5671814 110.56513428 121.5671814 110.56513428 119.62719727 110.61962891 C118.25147713 110.64298789 116.87574395 110.66558872 115.5 110.6875 C114.04547546 110.71982505 112.59096696 110.75287866 111.13647461 110.78662109 C106.75789704 110.88160931 102.37922816 110.94425938 98 111 C96.84000488 111.01659668 95.68000977 111.03319336 94.48486328 111.05029297 C87.35170918 111.13677486 80.22201044 111.11012673 73.08886719 111.04150391 C69.14940426 111.00534634 65.21011825 110.9894475 61.27050781 110.97802734 C54.87826132 110.9577428 48.48665309 110.90881526 42.09469604 110.84539795 C39.50484804 110.82359185 36.9149166 110.81002656 34.32498169 110.80499268 C30.64702224 110.79569241 26.97060466 110.75478352 23.29296875 110.70703125 C22.18780914 110.71095383 21.08264954 110.7148764 19.94400024 110.71891785 C11.9712971 110.56909488 6.02167426 108.81440394 0.14958191 103.24494934 C-6.32452463 96.36586691 -7.45666133 89.51805642 -7.546875 80.390625 C-7.56760574 79.36191788 -7.58833649 78.33321075 -7.60969543 77.27333069 C-7.67181094 73.93227489 -7.71184129 70.59140859 -7.75 67.25 C-7.78605167 64.95336401 -7.82243045 62.65673314 -7.85913086 60.36010742 C-8.1196477 41.8858741 -7.82675152 23.45661834 -7 5 C-6.01 4.67 -5.02 4.34 -4 4 C-3.18942781 8.96222886 -2.85867857 13.76479177 -2.87402344 18.79614258 C-2.87122124 19.91474922 -2.87122124 19.91474922 -2.86836243 21.05595398 C-2.86438175 22.66387909 -2.86228575 24.27180977 -2.86190033 25.87973976 C-2.8584534 29.31228539 -2.83705372 32.74464686 -2.81666946 36.17712688 C-2.77881897 42.55308795 -2.74738233 48.928845 -2.74951172 55.30493164 C-2.75030237 59.75477673 -2.72679189 64.2039352 -2.6876297 68.65360069 C-2.67722772 70.33949376 -2.67560254 72.02546662 -2.68328094 73.71137428 C-2.72667251 84.29299195 -2.35854935 93.35179933 5.3125 101.4375 C11.72629007 105.16644771 17.21199668 106.44551964 24.5012207 106.32470703 C25.31067642 106.32353882 26.12013214 106.32237061 26.95411682 106.32116699 C29.61160594 106.31402304 32.26843741 106.28581879 34.92578125 106.2578125 C36.79696581 106.24965825 38.66815743 106.24300161 40.53935242 106.23776245 C45.46242591 106.22068462 50.38522174 106.18649913 55.3081665 106.14770508 C63.14574711 106.08847301 70.9834577 106.05413826 78.82118797 106.02193832 C81.52770236 106.00824546 84.23405636 105.98659944 86.94050598 105.96365356 C88.65214933 105.95359925 90.36379379 105.94373325 92.07543945 105.93408203 C92.79872437 105.92577362 93.52200928 105.91746521 94.26721191 105.90890503 C103.21814903 105.87300286 112.01748953 106.52723629 121 107 C121 73.01 121 39.02 121 4 C112.70746094 4.01160156 104.41492188 4.02320313 95.87109375 4.03515625 C89.94821417 4.04091588 84.0253367 4.04604207 78.10245609 4.05025387 C70.43117211 4.05579329 62.75989901 4.06282392 55.08862305 4.07543945 C48.36483161 4.08649153 41.64105439 4.09228517 34.91725349 4.09487724 C32.35244626 4.09672442 29.78763967 4.10033146 27.22283745 4.10573006 C23.62958255 4.11299239 20.03637629 4.11398874 16.44311523 4.11352539 C14.85383713 4.1189183 14.85383713 4.1189183 13.23245239 4.12442017 C8.04379584 4.11718377 3.11219207 3.90484721 -2 3 C-1.34 2.01 -0.68 1.02 0 0 Z M126 16 C124.87885906 20.48341844 124.86548423 24.87214329 124.88647461 29.4621582 C124.88632858 30.3016954 124.88618256 31.1412326 124.8860321 32.00621033 C124.88672674 34.77109392 124.89449812 37.53590948 124.90234375 40.30078125 C124.90420952 42.22177595 124.90563268 44.14277113 124.90663147 46.06376648 C124.91044409 51.11240967 124.92026367 56.16102396 124.93133545 61.20965576 C124.94157655 66.36437591 124.94613487 71.51910073 124.95117188 76.67382812 C124.96188706 86.78256476 124.97894842 96.89127997 125 107 C130.88739836 105.5794129 130.88739836 105.5794129 135.3125 101.75 C135.78300781 101.18796875 136.25351563 100.6259375 136.73828125 100.046875 C139.82536625 95.03872472 140.2491854 90.23621936 140.24291992 84.44995117 C140.24481827 83.71916351 140.24671661 82.98837585 140.24867249 82.23544312 C140.25235532 79.83783998 140.24171602 77.4405446 140.23046875 75.04296875 C140.22927594 73.37242163 140.228824 71.70187382 140.2290802 70.03132629 C140.22751991 66.54045377 140.21926165 63.04968447 140.20581055 59.55883789 C140.1887554 55.07506911 140.18499832 50.5914129 140.18575573 46.10761547 C140.18548454 42.66336484 140.18001262 39.21913902 140.17275429 35.77489662 C140.16956457 34.12061056 140.16759951 32.46632168 140.16686058 30.8120327 C140.16470393 28.50899782 140.15597646 26.20608502 140.14526367 23.90307617 C140.14145187 22.59102707 140.13764008 21.27897797 140.13371277 19.9271698 C140.33457436 17.10987327 140.33457436 17.10987327 139 16 C136.81360547 15.92741054 134.62499611 15.91626217 132.4375 15.9375 C131.23996094 15.94652344 130.04242188 15.95554687 128.80859375 15.96484375 C127.41833984 15.98224609 127.41833984 15.98224609 126 16 Z " fill="#0C0C0C" transform="translate(17,7)"/>
<path d="M0 0 C0.89182983 -0.00281982 1.78365967 -0.00563965 2.70251465 -0.00854492 C4.18153259 -0.00550858 4.18153259 -0.00550858 5.69042969 -0.00241089 C6.7228479 -0.00416321 7.75526611 -0.00591553 8.81896973 -0.00772095 C12.25009821 -0.01214168 15.68117563 -0.00920069 19.11230469 -0.00582886 C21.48502614 -0.00650183 23.85774753 -0.0074718 26.23046875 -0.00872803 C31.21061864 -0.0102053 36.19075063 -0.00804949 41.17089844 -0.00338745 C47.57059148 0.00230985 53.97024258 -0.000969 60.36993408 -0.00695992 C65.27165038 -0.01056473 70.17335665 -0.00942731 75.07507324 -0.00683212 C77.43550623 -0.00616263 79.79594012 -0.00699204 82.15637207 -0.00931168 C85.44899931 -0.0118369 88.74155761 -0.00799944 92.03417969 -0.00241089 C93.02019165 -0.00443512 94.00620361 -0.00645935 95.02209473 -0.00854492 C95.91392456 -0.0057251 96.80575439 -0.00290527 97.72460938 0 C98.50406921 0.00037703 99.28352905 0.00075405 100.08660889 0.0011425 C101.86230469 0.12698364 101.86230469 0.12698364 102.86230469 1.12698364 C102.96067679 2.45741989 102.99309061 3.79291709 102.99511719 5.12698364 C102.99640625 5.93135864 102.99769531 6.73573364 102.99902344 7.56448364 C102.99515625 8.41010864 102.99128906 9.25573364 102.98730469 10.12698364 C102.99117188 10.97260864 102.99503906 11.81823364 102.99902344 12.68948364 C102.99773437 13.49385864 102.99644531 14.29823364 102.99511719 15.12698364 C102.99398926 15.86948364 102.99286133 16.61198364 102.99169922 17.37698364 C102.86230469 19.12698364 102.86230469 19.12698364 101.86230469 20.12698364 C100.48587569 20.22452929 99.10449034 20.25329984 97.72460938 20.25396729 C96.83277954 20.25678711 95.94094971 20.25960693 95.02209473 20.26251221 C94.03608276 20.26048798 93.0500708 20.25846375 92.03417969 20.25637817 C91.00176147 20.25813049 89.96934326 20.25988281 88.90563965 20.26168823 C85.47451117 20.26610897 82.04343374 20.26316797 78.61230469 20.25979614 C76.23958323 20.26046912 73.86686184 20.26143909 71.49414062 20.26269531 C66.51399074 20.26417259 61.53385875 20.26201678 56.55371094 20.25735474 C50.1540179 20.25165744 43.75436679 20.25493629 37.35467529 20.2609272 C32.452959 20.26453202 27.55125272 20.26339459 22.64953613 20.26079941 C20.28910314 20.26012992 17.92866925 20.26095932 15.5682373 20.26327896 C12.27561006 20.26580418 8.98305176 20.26196673 5.69042969 20.25637817 C4.70441772 20.2584024 3.71840576 20.26042664 2.70251465 20.26251221 C1.81068481 20.25969238 0.91885498 20.25687256 0 20.25396729 C-0.77945984 20.25359026 -1.55891968 20.25321323 -2.36199951 20.25282478 C-4.13769531 20.12698364 -4.13769531 20.12698364 -5.13769531 19.12698364 C-5.23606741 17.79654739 -5.26848124 16.4610502 -5.27050781 15.12698364 C-5.27179687 14.32260864 -5.27308594 13.51823364 -5.27441406 12.68948364 C-5.27054688 11.84385864 -5.26667969 10.99823364 -5.26269531 10.12698364 C-5.2665625 9.28135864 -5.27042969 8.43573364 -5.27441406 7.56448364 C-5.273125 6.76010864 -5.27183594 5.95573364 -5.27050781 5.12698364 C-5.26937988 4.38448364 -5.26825195 3.64198364 -5.26708984 2.87698364 C-5.0108462 -0.58859076 -2.98106532 0.00144194 0 0 Z M-1.13769531 5.12698364 C-1.23593468 6.79127416 -1.26743162 8.45980295 -1.26269531 10.12698364 C-1.26527344 11.03448364 -1.26785156 11.94198364 -1.27050781 12.87698364 C-1.3894331 15.09664975 -1.3894331 15.09664975 -0.13769531 16.12698364 C2.9368523 16.22230692 5.98889626 16.25249744 9.0637207 16.24050903 C10.02947021 16.24065506 10.99521973 16.24080109 11.99023438 16.24095154 C15.19891567 16.24025198 18.40753972 16.23245761 21.61621094 16.22463989 C23.83438587 16.22277586 26.05256121 16.22135189 28.27073669 16.22035217 C34.1217054 16.2165258 39.97264946 16.2066945 45.8236084 16.19564819 C51.78897773 16.18543664 57.75435102 16.1808551 63.71972656 16.17581177 C75.43393013 16.16507234 87.14811536 16.14799449 98.86230469 16.12698364 C98.88917748 14.31456313 98.90864184 12.50203131 98.92480469 10.68948364 C98.93640625 9.68014771 98.94800781 8.67081177 98.95996094 7.63088989 C99.14843144 5.18677297 99.14843144 5.18677297 97.86230469 4.12698364 C94.82364708 4.02634165 91.80767739 3.99083774 88.76855469 3.99758911 C87.81416504 3.99583679 86.85977539 3.99408447 85.87646484 3.99227905 C82.70505991 3.98785878 79.53371024 3.99079915 76.36230469 3.99417114 C74.1689452 3.99349815 71.97558579 3.99252817 69.78222656 3.99127197 C65.17870374 3.98979476 60.57520027 3.9919503 55.97167969 3.99661255 C50.05625874 4.00230984 44.14088315 3.99903096 38.22546387 3.99304008 C33.69433243 3.9894351 29.16321183 3.99057277 24.63208008 3.99316788 C22.45027664 3.99383732 20.26847223 3.99300813 18.08666992 3.99068832 C15.04310479 3.98816282 11.99961423 3.99200094 8.95605469 3.99758911 C8.04484863 3.99556488 7.13364258 3.99354065 6.19482422 3.99145508 C2.21110099 3.60395578 2.21110099 3.60395578 -1.13769531 5.12698364 Z " fill="#6C6C6C" transform="translate(27.1376953125,18.873016357421875)"/>
<path d="M0 0 C38.61 0 77.22 0 117 0 C117 34.65 117 69.3 117 105 C67.5 105.495 67.5 105.495 17 106 C17 106.33 17 106.66 17 107 C9.02813833 107.67053042 3.42295877 106.97059382 -3 102 C-8.6766055 96.77056692 -12.02585329 90.84545506 -12.44824219 83.07910156 C-12.49617785 81.18326362 -12.52813185 79.28697624 -12.546875 77.390625 C-12.56760574 76.36191788 -12.58833649 75.33321075 -12.60969543 74.27333069 C-12.67181094 70.93227489 -12.71184129 67.59140859 -12.75 64.25 C-12.78605167 61.95336401 -12.82243045 59.65673314 -12.85913086 57.36010742 C-13.1196477 38.8858741 -12.82675152 20.45661834 -12 2 C-11.01 1.67 -10.02 1.34 -9 1 C-8.18942781 5.96222886 -7.85867857 10.76479177 -7.87402344 15.79614258 C-7.87122124 16.91474922 -7.87122124 16.91474922 -7.86836243 18.05595398 C-7.86438175 19.66387909 -7.86228575 21.27180977 -7.86190033 22.87973976 C-7.8584534 26.31228539 -7.83705372 29.74464686 -7.81666946 33.17712688 C-7.77881897 39.55308795 -7.74738233 45.928845 -7.74951172 52.30493164 C-7.75030237 56.75477673 -7.72679189 61.2039352 -7.6876297 65.65360069 C-7.67722772 67.33949376 -7.67560254 69.02546662 -7.68328094 70.71137428 C-7.72667251 81.29299195 -7.35854935 90.35179933 0.3125 98.4375 C6.72629007 102.16644771 12.21199668 103.44551964 19.5012207 103.32470703 C20.31067642 103.32353882 21.12013214 103.32237061 21.95411682 103.32116699 C24.61160594 103.31402304 27.26843741 103.28581879 29.92578125 103.2578125 C31.79696581 103.24965825 33.66815743 103.24300161 35.53935242 103.23776245 C40.46242591 103.22068462 45.38522174 103.18649913 50.3081665 103.14770508 C58.14574711 103.08847301 65.9834577 103.05413826 73.82118797 103.02193832 C76.52770236 103.00824546 79.23405636 102.98659944 81.94050598 102.96365356 C83.65214933 102.95359925 85.36379379 102.94373325 87.07543945 102.93408203 C87.79872437 102.92577362 88.52200928 102.91746521 89.26721191 102.90890503 C98.21814903 102.87300286 107.01748953 103.52723629 116 104 C116 70.01 116 36.02 116 1 C77.72 1 39.44 1 0 1 C0 0.67 0 0.34 0 0 Z " fill="#C7C7C7" transform="translate(22,10)"/>
<path d="M0 0 C41.25 0 82.5 0 125 0 C125.495 5.445 125.495 5.445 126 11 C127.21558594 11.06058594 128.43117187 11.12117188 129.68359375 11.18359375 C131.26824228 11.26798332 132.85287702 11.3526321 134.4375 11.4375 C135.23994141 11.47681641 136.04238281 11.51613281 136.86914062 11.55664062 C142.88671875 11.88671875 142.88671875 11.88671875 144 13 C144.11097714 15.45240909 144.15738562 17.8769222 144.16113281 20.33032227 C144.16609772 21.09790359 144.17106262 21.86548492 144.17617798 22.65632629 C144.19084593 25.20969526 144.19761179 27.76300197 144.203125 30.31640625 C144.20887583 32.08943178 144.21463357 33.8624573 144.22039795 35.63548279 C144.23092327 39.36221609 144.23675485 43.08892774 144.24023438 46.81567383 C144.24570043 51.57812442 144.26968126 56.34028639 144.29820633 61.10264683 C144.31689181 64.77022617 144.32204161 68.43773712 144.32357025 72.10536003 C144.32658763 73.85993961 144.33458513 75.61451824 144.34775543 77.36905098 C144.36492801 79.83422376 144.36290787 82.29870668 144.35644531 84.76391602 C144.3656601 85.48164185 144.37487488 86.19936768 144.3843689 86.93884277 C144.31867186 94.99219424 141.68453535 101.31546465 136 107 C131.69633776 109.55120671 128.44834116 110.39512169 123.46875 110.51171875 C122.19684814 110.5473291 120.92494629 110.58293945 119.61450195 110.61962891 C118.2430121 110.64289788 116.8715109 110.66550629 115.5 110.6875 C114.08355949 110.7197603 112.66713681 110.75281207 111.25073242 110.78662109 C106.8340906 110.88464238 102.41740158 110.94804202 98 111 C97.27782288 111.00860046 96.55564575 111.01720093 95.81158447 111.02606201 C90.97852598 111.08016392 86.14583964 111.10982141 81.3125 111.125 C80.04921875 111.12975342 78.7859375 111.13450684 77.484375 111.1394043 C76.31003906 111.137229 75.13570313 111.13505371 73.92578125 111.1328125 C72.89880127 111.13168457 71.87182129 111.13055664 70.8137207 111.12939453 C68.10698236 111.0049198 65.63617073 110.6086493 63 110 C63 109.67 63 109.34 63 109 C83.13 108.67 103.26 108.34 124 108 C124 77.31 124 46.62 124 15 C129.61 15 135.22 15 141 15 C141.33 14.67 141.66 14.34 142 14 C140.78441406 14.01160156 139.56882813 14.02320313 138.31640625 14.03515625 C136.73177236 14.04453278 135.14713682 14.05363313 133.5625 14.0625 C132.76005859 14.07087891 131.95761719 14.07925781 131.13085938 14.08789062 C129.08704779 14.0965143 127.04316098 14.0522815 125 14 C124.505 13.505 124.505 13.505 124 13 C124 9.04 124 5.08 124 1 C83.08 1 42.16 1 0 1 C0 0.67 0 0.34 0 0 Z M126 16 C124.87885906 20.48341844 124.86548423 24.87214329 124.88647461 29.4621582 C124.88632858 30.3016954 124.88618256 31.1412326 124.8860321 32.00621033 C124.88672674 34.77109392 124.89449812 37.53590948 124.90234375 40.30078125 C124.90420952 42.22177595 124.90563268 44.14277113 124.90663147 46.06376648 C124.91044409 51.11240967 124.92026367 56.16102396 124.93133545 61.20965576 C124.94157655 66.36437591 124.94613487 71.51910073 124.95117188 76.67382812 C124.96188706 86.78256476 124.97894842 96.89127997 125 107 C130.88739836 105.5794129 130.88739836 105.5794129 135.3125 101.75 C135.78300781 101.18796875 136.25351563 100.6259375 136.73828125 100.046875 C139.82536625 95.03872472 140.2491854 90.23621936 140.24291992 84.44995117 C140.24481827 83.71916351 140.24671661 82.98837585 140.24867249 82.23544312 C140.25235532 79.83783998 140.24171602 77.4405446 140.23046875 75.04296875 C140.22927594 73.37242163 140.228824 71.70187382 140.2290802 70.03132629 C140.22751991 66.54045377 140.21926165 63.04968447 140.20581055 59.55883789 C140.1887554 55.07506911 140.18499832 50.5914129 140.18575573 46.10761547 C140.18548454 42.66336484 140.18001262 39.21913902 140.17275429 35.77489662 C140.16956457 34.12061056 140.16759951 32.46632168 140.16686058 30.8120327 C140.16470393 28.50899782 140.15597646 26.20608502 140.14526367 23.90307617 C140.14145187 22.59102707 140.13764008 21.27897797 140.13371277 19.9271698 C140.33457436 17.10987327 140.33457436 17.10987327 139 16 C136.81360547 15.92741054 134.62499611 15.91626217 132.4375 15.9375 C131.23996094 15.94652344 130.04242188 15.95554687 128.80859375 15.96484375 C127.41833984 15.98224609 127.41833984 15.98224609 126 16 Z " fill="#858585" transform="translate(17,7)"/>
<path d="M0 0 C1.12494873 0.00128906 2.24989746 0.00257812 3.40893555 0.00390625 C4.59914307 0.01679687 5.78935059 0.0296875 7.015625 0.04296875 C8.22452393 0.04941406 9.43342285 0.05585937 10.67895508 0.0625 C19.57061277 0.1385631 28.40579576 0.47066716 37.265625 1.23046875 C38.30247761 5.40929897 38.3035386 9.20680159 38.14453125 13.5 C38.10911476 14.52150398 38.10911476 14.52150398 38.07298279 15.56364441 C37.99684114 17.72365787 37.91260681 19.88326703 37.828125 22.04296875 C37.77485461 23.51365256 37.72211461 24.98435568 37.66992188 26.45507812 C37.54129411 30.04711899 37.40541028 33.6388428 37.265625 37.23046875 C32.08970125 38.31194267 27.21472172 38.29374 21.96484375 38.14453125 C21.08786331 38.12329193 20.21088287 38.10205261 19.30732727 38.08016968 C17.46417159 38.03410644 15.6210851 37.98519606 13.77807617 37.93359375 C10.94529359 37.85525217 8.11239817 37.78834283 5.27929688 37.72265625 C3.48696154 37.67646013 1.69464296 37.62960846 -0.09765625 37.58203125 C-0.94862381 37.5621817 -1.79959137 37.54233215 -2.67634583 37.5218811 C-8.61920451 37.34563924 -8.61920451 37.34563924 -9.734375 36.23046875 C-9.82285243 33.70952799 -9.84964801 31.21615982 -9.83203125 28.6953125 C-9.8306163 27.94206192 -9.82920135 27.18881134 -9.82774353 26.41273499 C-9.82212876 23.99777315 -9.80957383 21.58290274 -9.796875 19.16796875 C-9.7918619 17.53450654 -9.78729866 15.90104289 -9.78320312 14.26757812 C-9.77215454 10.2551729 -9.75488006 6.24283634 -9.734375 2.23046875 C-6.39487367 0.22547665 -3.8668888 -0.01575674 0 0 Z M-5.734375 5.23046875 C-5.734375 14.47046875 -5.734375 23.71046875 -5.734375 33.23046875 C3.88877663 34.09446717 3.88877663 34.09446717 13.34375 34.109375 C14.94331543 34.04472046 14.94331543 34.04472046 16.57519531 33.97875977 C18.52570801 33.88679321 18.52570801 33.88679321 20.515625 33.79296875 C24.723125 33.60734375 28.930625 33.42171875 33.265625 33.23046875 C33.265625 23.99046875 33.265625 14.75046875 33.265625 5.23046875 C20.395625 5.23046875 7.525625 5.23046875 -5.734375 5.23046875 Z " fill="#898889" transform="translate(31.734375,62.76953125)"/>
<path d="M0 0 C1.17113799 0.00138269 1.17113799 0.00138269 2.36593533 0.00279331 C3.70584782 0.00073132 3.70584782 0.00073132 5.07282925 -0.00137234 C6.55420376 0.00402058 6.55420376 0.00402058 8.06550503 0.00952244 C9.09952953 0.00937641 10.13355404 0.00923038 11.19891262 0.00907993 C14.63485175 0.00977956 18.07073742 0.01757425 21.50666714 0.02539158 C23.88178382 0.02725558 26.25690089 0.02867957 28.63201809 0.0296793 C34.89727233 0.03350586 41.16250356 0.04333732 47.42774868 0.05438328 C53.81537979 0.06459443 60.2030146 0.06917628 66.59065151 0.0742197 C79.13428115 0.08495947 91.6778948 0.10184656 104.22151089 0.12304783 C104.71651089 2.10304783 104.71651089 2.10304783 105.22151089 4.12304783 C69.91151089 4.45304783 34.60151089 4.78304783 -1.77848911 5.12304783 C-2.10848911 3.80304783 -2.43848911 2.48304783 -2.77848911 1.12304783 C-1.77848911 0.12304783 -1.77848911 0.12304783 0 0 Z " fill="#6F6F6F" transform="translate(24.778489112854004,47.876952171325684)"/>
<path d="M0 0 C41.25 0 82.5 0 125 0 C125.495 5.445 125.495 5.445 126 11 C127.21558594 11.06058594 128.43117187 11.12117188 129.68359375 11.18359375 C131.26824228 11.26798332 132.85287702 11.3526321 134.4375 11.4375 C135.23994141 11.47681641 136.04238281 11.51613281 136.86914062 11.55664062 C142.88671875 11.88671875 142.88671875 11.88671875 144 13 C144.10034437 15.47372631 144.1361794 17.91954923 144.12939453 20.39379883 C144.13202301 21.55480858 144.13202301 21.55480858 144.13470459 22.73927307 C144.1391251 25.31188159 144.13618357 27.88442197 144.1328125 30.45703125 C144.13348569 32.23963942 144.13445584 34.02224749 144.13571167 35.80485535 C144.13718908 39.54837922 144.13503348 43.29187928 144.13037109 47.03540039 C144.12468614 51.83401044 144.1279447 56.6325644 144.13394356 61.43117237 C144.13755857 65.1157422 144.13640604 68.80029877 144.13381577 72.484869 C144.13314846 74.25390314 144.13396808 76.02293848 144.13629532 77.79197121 C144.13883585 80.26735238 144.13496087 82.74264314 144.12939453 85.21801758 C144.13141876 85.95012451 144.13344299 86.68223145 144.13552856 87.43652344 C144.12166092 90.76686264 144.03483219 93.8157997 143 97 C142.01 96.67 141.02 96.34 140 96 C140.16076523 95.49704407 140.32153046 94.99408813 140.48716736 94.47589111 C141.18286093 91.11717057 141.17782954 87.80104581 141.20532227 84.38574219 C141.21522186 83.62437958 141.22512146 82.86301697 141.23532104 82.07858276 C141.26684776 79.56804488 141.29165847 77.05748809 141.31640625 74.546875 C141.33698341 72.80380773 141.35798008 71.06074536 141.37937927 69.31768799 C141.43452129 64.73433408 141.48396523 60.15093572 141.53222656 55.56750488 C141.5824991 50.88871311 141.63815512 46.20998572 141.69335938 41.53125 C141.80084467 32.3542217 141.90231097 23.17713744 142 14 C140.78441406 14.01160156 139.56882813 14.02320313 138.31640625 14.03515625 C136.73177236 14.04453278 135.14713682 14.05363313 133.5625 14.0625 C132.76005859 14.07087891 131.95761719 14.07925781 131.13085938 14.08789062 C129.08704779 14.0965143 127.04316098 14.0522815 125 14 C124.505 13.505 124.505 13.505 124 13 C124 9.04 124 5.08 124 1 C83.08 1 42.16 1 0 1 C0 0.67 0 0.34 0 0 Z " fill="#919191" transform="translate(17,7)"/>
<path d="M0 0 C0.66 0 1.32 0 2 0 C3.09493962 4.37865278 3.0991868 8.61486303 3.02172852 13.0949707 C3.0073172 14.29575508 3.0073172 14.29575508 2.99261475 15.52079773 C2.95974283 18.15588506 2.91936587 20.79080042 2.87890625 23.42578125 C2.85459358 25.25708925 2.8307506 27.08840353 2.80735779 28.91972351 C2.74463097 33.73169133 2.67553217 38.54354729 2.60510254 43.35540771 C2.53431595 48.26878785 2.46956083 53.18224708 2.40429688 58.09570312 C2.27543156 67.73055568 2.13983397 77.36530083 2 87 C1.01 87 0.02 87 -1 87 C-2.30172848 37.46720931 -2.30172848 37.46720931 -1.625 15.375 C-1.60357941 14.63253021 -1.58215881 13.89006042 -1.56008911 13.12509155 C-1.20019766 1.20019766 -1.20019766 1.20019766 0 0 Z " fill="#414141" transform="translate(11,11)"/>
<path d="M0 0 C0 11.22 0 22.44 0 34 C-14.85 34 -29.7 34 -45 34 C-44.67 33.34 -44.34 32.68 -44 32 C-30.14 32 -16.28 32 -2 32 C-2 22.1 -2 12.2 -2 2 C-15.53 2 -29.06 2 -43 2 C-43 1.67 -43 1.34 -43 1 C-37.19759872 0.85727444 -31.39518978 0.71486574 -25.59277344 0.57275391 C-23.61783639 0.52433903 -21.64290148 0.47583674 -19.66796875 0.42724609 C-16.83333889 0.35751875 -13.99870154 0.2881032 -11.1640625 0.21875 C-10.27756012 0.19687622 -9.39105774 0.17500244 -8.47769165 0.15246582 C-2.22774341 0 -2.22774341 0 0 0 Z " fill="#171717" transform="translate(68,65)"/>
<path d="M0 0 C0.83637497 0.02361099 1.67274994 0.04722198 2.5344696 0.07154846 C5.1937403 0.1478401 7.85269409 0.23201185 10.51171875 0.31640625 C12.31964619 0.36966152 14.12758888 0.42240166 15.93554688 0.47460938 C20.35696976 0.60340828 24.7781253 0.73927278 29.19921875 0.87890625 C29.69421875 2.85890625 29.69421875 2.85890625 30.19921875 4.87890625 C24.20037038 5.64918639 18.48310941 5.97809758 12.4453125 5.7578125 C11.65898941 5.73420151 10.87266632 5.71059052 10.06251526 5.68626404 C7.58702052 5.61058501 5.11191771 5.52615845 2.63671875 5.44140625 C0.94337762 5.38808926 -0.7499818 5.3353498 -2.44335938 5.28320312 C-6.56274124 5.15510223 -10.68179611 5.01916356 -14.80078125 4.87890625 C-14.47078125 3.55890625 -14.14078125 2.23890625 -13.80078125 0.87890625 C-9.15353305 -0.33076309 -4.75308126 -0.15954843 0 0 Z " fill="#676767" transform="translate(99.80078125,65.12109375)"/>
<path d="M0 0 C13.86 0.33 27.72 0.66 42 1 C42 2.32 42 3.64 42 5 C36.00115163 5.77028014 30.28389066 6.09919133 24.24609375 5.87890625 C23.45977066 5.85529526 22.67344757 5.83168427 21.86329651 5.80735779 C19.38780177 5.73167876 16.91269896 5.6472522 14.4375 5.5625 C12.74415887 5.50918301 11.05079945 5.45644355 9.35742188 5.40429688 C5.23804001 5.27619598 1.11898514 5.14025731 -3 5 C-2.01 3.35 -1.02 1.7 0 0 Z " fill="#727272" transform="translate(87,79)"/>
<path d="M0 0 C14.85 0 29.7 0 45 0 C44.67 1.32 44.34 2.64 44 4 C29.81 4 15.62 4 1 4 C0.67 2.68 0.34 1.36 0 0 Z " fill="#6A6A6A" transform="translate(85,94)"/>
<path d="M0 0 C1.41266022 2.63696575 2.60853764 5.01929376 3 8 C1.99609375 9.81640625 1.99609375 9.81640625 0.4375 11.5625 C-0.05878906 12.14128906 -0.55507812 12.72007813 -1.06640625 13.31640625 C-5.48944996 17.16758168 -9.75586147 18.37648811 -15.53125 18.51171875 C-16.80315186 18.5473291 -18.07505371 18.58293945 -19.38549805 18.61962891 C-20.7569879 18.64289788 -22.1284891 18.66550629 -23.5 18.6875 C-24.91644051 18.7197603 -26.33286319 18.75281207 -27.74926758 18.78662109 C-32.1659094 18.88464238 -36.58259842 18.94804202 -41 19 C-41.72217712 19.00860046 -42.44435425 19.01720093 -43.18841553 19.02606201 C-48.02147402 19.08016392 -52.85416036 19.10982141 -57.6875 19.125 C-59.58242187 19.13213013 -59.58242187 19.13213013 -61.515625 19.1394043 C-62.68996094 19.137229 -63.86429688 19.13505371 -65.07421875 19.1328125 C-66.10119873 19.13168457 -67.12817871 19.13055664 -68.1862793 19.12939453 C-70.89301764 19.0049198 -73.36382927 18.6086493 -76 18 C-76 17.67 -76 17.34 -76 17 C-75.24022858 16.99191315 -74.48045715 16.98382629 -73.69766235 16.97549438 C-66.54608567 16.89763273 -59.3947155 16.81036814 -52.24338722 16.71247292 C-48.56659359 16.66247448 -44.88982918 16.61614507 -41.21289062 16.578125 C-37.66606297 16.54131654 -34.11947779 16.49496933 -30.5728569 16.44193649 C-29.2180849 16.42336878 -27.86326087 16.40826962 -26.50841141 16.39665604 C-24.61439144 16.37983491 -22.72050412 16.34966384 -20.82666016 16.31884766 C-19.20783432 16.29886215 -19.20783432 16.29886215 -17.55630493 16.2784729 C-14.8344136 16.25199493 -14.8344136 16.25199493 -13 14 C-11.88625 13.566875 -10.7725 13.13375 -9.625 12.6875 C-4.57051134 10.33454838 -2.69856415 7.85119499 -0.75 2.6875 C-0.37875 1.3571875 -0.37875 1.3571875 0 0 Z " fill="#636063" transform="translate(156,99)"/>
<path d="M0 0 C0.66 0 1.32 0 2 0 C2.99 2.97 3.98 5.94 5 9 C4.34 9 3.68 9 3 9 C4.98 11.64 6.96 14.28 9 17 C4.08602327 14.54301164 1.84758923 11.61080237 -1 7 C-1.875 4 -1.875 4 -2 2 C-1.34 2 -0.68 2 0 2 C0 1.34 0 0.68 0 0 Z " fill="#898989" transform="translate(13,96)"/>
<path d="M0 0 C0.70394612 1.31403276 1.36345658 2.6520257 2 4 C2.309375 4.639375 2.61875 5.27875 2.9375 5.9375 C3 8 3 8 0.5625 10.75 C-0.7059375 11.86375 -0.7059375 11.86375 -2 13 C-2 12.34 -2 11.68 -2 11 C-3.65 11.66 -5.3 12.32 -7 13 C-6.57847656 12.39671875 -6.15695313 11.7934375 -5.72265625 11.171875 C-5.17480469 10.37265625 -4.62695312 9.5734375 -4.0625 8.75 C-3.51722656 7.96109375 -2.97195312 7.1721875 -2.41015625 6.359375 C-1.10377559 4.17363007 -0.45019489 2.4846199 0 0 Z " fill="#7D7D7D" transform="translate(156,99)"/>
<path d="M0 0 C0.66 0 1.32 0 2 0 C1.875 1.8125 1.875 1.8125 1 4 C-2.74758745 6.38482838 -5.56348311 7.39145737 -10 7 C-10.33 6.01 -10.66 5.02 -11 4 C-10.28972656 3.79503906 -9.57945312 3.59007813 -8.84765625 3.37890625 C-7.92855469 3.10949219 -7.00945312 2.84007813 -6.0625 2.5625 C-4.68771484 2.16224609 -4.68771484 2.16224609 -3.28515625 1.75390625 C-1.0597507 1.20973949 -1.0597507 1.20973949 0 0 Z " fill="#5B5C5B" transform="translate(152,110)"/>
<path d="M0 0 C3.26954202 0.56371414 4.82575883 1.49962266 7 4 C6.67 4.99 6.34 5.98 6 7 C3.95880212 5.38405168 1.95927063 3.7143618 0 2 C0 1.34 0 0.68 0 0 Z " fill="#444444" transform="translate(16,105)"/>
<path d="" fill="#FFFF00" transform="translate(0,0)"/>
<path d="" fill="#FFFFFF" transform="translate(0,0)"/>
<path d="" fill="#FFFFFF" transform="translate(0,0)"/>
<path d="" fill="#FFFFFF" transform="translate(0,0)"/>
<path d="" fill="#FFFFFF" transform="translate(0,0)"/>
<path d="" fill="#FFFFFF" transform="translate(0,0)"/>
<path d="" fill="#FFFFFF" transform="translate(0,0)"/>
<path d="" fill="#FFFFFF" transform="translate(0,0)"/>
<path d="" fill="#FFFFFF" transform="translate(0,0)"/>
<path d="" fill="#FFFFFF" transform="translate(0,0)"/>
<path d="" fill="#FFFFFF" transform="translate(0,0)"/>
<path d="" fill="#FFFFFF" transform="translate(0,0)"/>
<path d="" fill="#FFFFFF" transform="translate(0,0)"/>
<path d="" fill="#FFFFFF" transform="translate(0,0)"/>
<path d="" fill="#FFFFFF" transform="translate(0,0)"/>
<path d="" fill="#FFFFFF" transform="translate(0,0)"/>
<path d="" fill="#FFFFFF" transform="translate(0,0)"/>
<path d="" fill="#FFFFFF" transform="translate(0,0)"/>
<path d="" fill="#FFFFFF" transform="translate(0,0)"/>
<path d="" fill="#FFFFFF" transform="translate(0,0)"/>
<path d="" fill="#FFFFFF" transform="translate(0,0)"/>
<path d="" fill="#FFFFFF" transform="translate(0,0)"/>
<path d="" fill="#FFFFFF" transform="translate(0,0)"/>
<path d="" fill="#FFFFFF" transform="translate(0,0)"/>
<path d="" fill="#FFFFFF" transform="translate(0,0)"/>
<path d="" fill="#FFFFFF" transform="translate(0,0)"/>
<path d="" fill="#FFFFFF" transform="translate(0,0)"/>
<path d="" fill="#FFFFFF" transform="translate(0,0)"/>
<path d="" fill="#FFFFFF" transform="translate(0,0)"/>
<path d="" fill="#FFFFFF" transform="translate(0,0)"/>
<path d="" fill="#FFFFFF" transform="translate(0,0)"/>
<path d="" fill="#FFFFFF" transform="translate(0,0)"/>
<path d="" fill="#FFFFFF" transform="translate(0,0)"/>
<path d="" fill="#FFFFFF" transform="translate(0,0)"/>
<path d="" fill="#FFFFFF" transform="translate(0,0)"/>
<path d="" fill="#FFFFFF" transform="translate(0,0)"/>
<path d="" fill="#FFFFFF" transform="translate(0,0)"/>
<path d="" fill="#FFFFFF" transform="translate(0,0)"/>
<path d="" fill="#FFFFFF" transform="translate(0,0)"/>
<path d="" fill="#FFFF00" transform="translate(0,0)"/>
<path d="" fill="#FFFFFF" transform="translate(0,0)"/>
<path d="" fill="#FFFFFF" transform="translate(0,0)"/>
<path d="" fill="#FFFFFF" transform="translate(0,0)"/>
<path d="" fill="#FFFFFF" transform="translate(0,0)"/>
<path d="" fill="#FFFFFF" transform="translate(0,0)"/>
<path d="" fill="#FFFFFF" transform="translate(0,0)"/>
<path d="" fill="#FFFFFF" transform="translate(0,0)"/>
<path d="" fill="#FFFFFF" transform="translate(0,0)"/>
<path d="" fill="#FFFFFF" transform="translate(0,0)"/>
<path d="" fill="#FFFFFF" transform="translate(0,0)"/>
</svg>
