<?xml version="1.0" standalone="no"?>
<!DOCTYPE svg PUBLIC "-//W3C//DTD SVG 20010904//EN"
 "http://www.w3.org/TR/2001/REC-SVG-20010904/DTD/svg10.dtd">
<svg version="1.0" xmlns="http://www.w3.org/2000/svg"
 width="500.000000pt" height="500.000000pt" viewBox="0 0 500.000000 500.000000"
 preserveAspectRatio="xMidYMid meet">

<g transform="translate(0.000000,500.000000) scale(0.100000,-0.100000)"
fill="#000000" stroke="none">
<path d="M2035 4176 c-253 -101 -732 -290 -1065 -420 -333 -131 -629 -249
-657 -262 l-53 -23 0 -110 0 -110 108 -3 107 -3 3 -167 2 -168 60 0 60 0 0
-39 c0 -36 3 -40 30 -46 l30 -7 -2 -866 -3 -867 -27 -3 c-25 -3 -28 -7 -28
-43 l0 -39 -60 0 -60 0 0 -60 0 -59 -67 -3 c-52 -2 -68 -7 -69 -18 -1 -8 -2
-34 -3 -57 l-1 -43 -65 0 -65 0 0 -60 0 -60 2290 0 2290 0 0 60 0 60 -65 0
-64 0 -3 57 -3 58 -67 3 -68 3 0 59 0 60 -60 0 -60 0 0 39 c0 36 -3 40 -27 43
l-28 3 -3 866 -2 866 30 6 c27 6 30 10 30 47 l0 40 60 0 60 0 2 168 3 167 108
3 108 3 -3 111 c-2 86 -6 113 -18 119 -8 5 -285 115 -615 245 -330 130 -821
323 -1091 429 -270 107 -497 196 -505 199 -8 2 -221 -78 -474 -178z m783
-1306 c3 -33 7 -41 28 -46 l24 -6 0 -869 0 -869 -25 0 c-22 0 -25 -4 -25 -40
l0 -40 -320 0 -320 0 0 40 c0 36 -2 40 -25 40 l-25 0 0 869 0 870 23 3 c17 2
23 10 25 38 1 19 4 40 6 45 2 6 115 9 317 8 l314 -2 3 -41z m-1108 0 c0 -28 4
-40 15 -41 8 -1 21 -2 28 -3 9 -1 12 -182 12 -871 l0 -870 -27 -3 c-25 -3 -28
-7 -28 -43 l0 -39 -320 0 -320 0 0 39 c0 33 -4 40 -22 43 l-23 3 -3 867 -2
868 25 6 c21 5 25 12 25 45 l0 39 320 0 320 0 0 -40z m2220 0 c0 -22 5 -41 10
-41 6 -1 16 -2 23 -3 9 -1 12 -182 12 -871 l0 -870 -22 -3 c-19 -3 -23 -10
-23 -43 l0 -39 -320 0 -320 0 0 39 c0 36 -3 40 -27 43 l-28 3 -3 867 -2 866
30 7 c27 6 30 10 30 46 l0 39 320 0 320 0 0 -40z"/>
</g>
</svg>
